<svg xmlns="http://www.w3.org/2000/svg" width="136" height="20"><path fill="#1C1B18" fill-rule="nonzero" d="M8.867 9.15h6.232c.175 1.04.26 2.091.255 3.145 0 3.796-2.95 7.648-7.337 7.648-4.277 0-8.045-3.739-8.017-8.923.028-5.44 4.131-8.952 9.575-8.952.587.007 1.174.047 1.757.118l1.841 5.836-.765.255-1.958-1.79c-1.696-1.53-2.858-2.035-4.013-2.035-1.587 0-2.862 1.162-2.862 3.456 0 4.306 3.088 8.754 6.492 8.754 1.615 0 2.408-.59 2.975-1.19L8.867 10v-.85Zm22.677 3.456c0 4.132-3.173 7.394-7.535 7.394-4.363 0-7.54-3.258-7.54-7.394s3.174-7.394 7.536-7.394c4.363 0 7.54 3.254 7.54 7.394Zm-5.075-.793c-1.1-3.347-2.545-5.354-4.273-4.787-1.728.566-1.728 3.03-.652 6.373 1.105 3.343 2.55 5.355 4.278 4.788 1.728-.567 1.728-3.031.651-6.374h-.004Zm19.594 1.728.34 1.133c-.454 2.521-2.352 5.27-6.148 5.27-4.279 0-7.621-3.598-7.621-8.783 0-5.58 4.108-9.088 9.18-9.088.587-.002 1.174.037 1.756.118l1.841 5.835-.765.255-1.954-1.784C41.02 4.995 40 4.429 38.839 4.429c-1.587 0-2.635 1.19-2.635 3.484 0 4.306 2.38 8.187 5.864 8.187 2.154-.01 3.32-1.2 3.996-2.559h-.001Zm16.515 3.853.283.906a3.541 3.541 0 0 1-2.973 1.615c-2.351 0-3.314-1.388-3.994-3.258-.652 1.757-2.153 3.286-4.873 3.286-2.436 0-3.767-1.614-3.767-3.37 0-2.437 2.006-4.165 6.317-6.403-.538-1.02-1.757-1.501-3.06-1.501-1.586-.029-3.342.651-4.249 1.87l-.312-.964c.68-1.841 2.951-4.278 6.573-4.278 3.258 0 5.467 1.983 6.492 5.128l1.954 6.006c.284.906.737 1.161 1.105 1.161a.756.756 0 0 0 .505-.198Zm-8.016-4.443-.59-1.785c-1.615 1.218-2.408 2.776-2.408 3.91 0 1.473.737 2.153 1.757 2.153 1.746-.005 2.12-1.648 1.241-4.278Zm19.864-3.29-.737.254c-1.534-.708-2.096-.765-3.371-.765a4.1 4.1 0 0 0-1.502.34v7.649c0 .793.397 1.388 1.445 1.7v.85h-7.115v-.85c.935-.312 1.02-.907 1.02-1.7V8.98c0-1.473-.425-1.983-1.927-2.606v-.85h6.52l-.117 3.088h.056l.539-.708c1.076-1.417 2.436-2.437 3.767-2.437h.118l1.304 4.193Zm14.42 9.178v.85h-5.837l.028-1.842h-.141a4.466 4.466 0 0 1-3.773 1.95c-3.23 0-5.24-2.715-5.24-6.232 0-4.618 3.116-7.96 8.215-7.96.396 0 .793.028.793.028V4.476c0-1.247-.623-1.671-1.643-1.756v-.765L87.282 0h.255v17.139c0 .793.368 1.388 1.304 1.7h.005Zm-5.95-3.797V7.62a2.597 2.597 0 0 0-1.048-.198c-1.672 0-3.74 1.275-3.74 4.84 0 3.314 1.275 5.127 3.003 5.127.647.005 1.78-.307 1.78-2.347h.005Zm14.222 3.797v.85h-7.252v-.85c.933-.312 1.298-.907 1.298-1.7V4.476c0-1.247-.622-1.671-1.642-1.756v-.765L95.554 0h.255v17.139c.001.793.37 1.388 1.304 1.7h.005Zm14.787-5.864.312.963c-.482 3.314-3.173 6.005-6.685 6.005-4.505 0-7.394-3.37-7.394-7.62 0-3.881 2.715-6.997 6.544-6.997 2.776 0 4.84 1.7 5.694 3.994l-7.422 5.014c1.048 1.105 2.52 1.87 4.22 1.87 2.319 0 4.079-1.615 4.727-3.23h.004Zm-10.85-3.202c0 1.247.426 2.55 1.162 3.66l1.245-1.19c.85-.794 1.558-1.672 1.558-2.89 0-.935-.623-2.04-1.87-2.04-1.164-.004-2.1.874-2.1 2.46h.006Zm19.061.935c2.748 1.388 3.853 2.748 3.853 4.646 0 2.295-1.842 4.59-5.784 4.59-2.096 0-3.315-.34-4.334-.765l-1.332-4.132.737-.226.651.623c2.007 1.898 3.74 3.144 5.076 3.144.991 0 1.534-.623 1.534-1.274 0-.624-.118-1.36-1.813-2.21l-2.52-1.275c-2.21-1.133-3.259-2.521-3.259-4.108 0-2.714 2.38-4.305 5.44-4.305 2.067 0 3.229.283 3.229.283l1.161 3.598-.736.226-.453-.396c-2.352-2.068-3.173-2.493-4.165-2.493-.708 0-1.298.453-1.298 1.076 0 .453.085 1.02 1.501 1.728l2.512 1.27Zm11.898.029c2.715 1.416 3.853 2.714 3.853 4.617 0 2.295-1.842 4.59-5.784 4.59-2.096 0-3.314-.34-4.334-.765l-1.332-4.132.737-.226.651.623c2.007 1.898 3.74 3.144 5.076 3.144.991 0 1.534-.623 1.534-1.274 0-.624-.118-1.332-1.813-2.21l-2.52-1.298c-2.21-1.134-3.259-2.493-3.259-4.08 0-2.715 2.38-4.306 5.44-4.306 2.067 0 3.229.284 3.229.284l1.161 3.597-.736.227-.453-.397c-2.352-2.068-3.173-2.493-4.165-2.493-.708 0-1.298.454-1.298 1.077 0 .453.085.991 1.501 1.728l2.512 1.294Z"/></svg>