<svg xmlns="http://www.w3.org/2000/svg" width="324" height="46"><g fill="#000" fill-rule="nonzero"><path d="M318.544 22.021c2.826 0 4.788-2.07 4.788-4.806 0-2.826-2.052-4.788-4.788-4.788-2.844 0-4.806 2.052-4.806 4.788 0 2.844 2.07 4.806 4.806 4.806Zm0-.972c-2.214 0-3.744-1.656-3.744-3.834 0-2.25 1.602-3.816 3.744-3.816 2.196 0 3.726 1.638 3.726 3.816 0 2.268-1.602 3.834-3.726 3.834Zm-.918-1.656v-1.458h1.386c.234 0 .378.108.432.306l.36 1.152h.918l-.432-1.35c-.108-.342-.306-.486-.594-.54.522-.18.882-.612.882-1.17 0-.756-.612-1.296-1.494-1.296h-2.358v4.356h.9Zm0-3.546h1.476c.396 0 .594.324.594.648 0 .342-.198.666-.594.666h-1.476v-1.314ZM21.4 45.9c12.96 0 21.06-9.18 21.06-22.02 0-13.2-8.58-21.78-21.06-21.78C8.5 2.1.46 11.16.46 23.88.46 37.26 8.98 45.9 21.4 45.9Zm0-6.54c-8.34 0-13.62-6-13.62-15.48 0-9.36 5.28-15.3 13.62-15.3 8.4 0 13.74 5.94 13.74 15.3 0 9.48-5.34 15.48-13.74 15.48ZM60.535 45.9c7.8 0 12.24-3.6 12.24-9.48 0-5.7-3.78-7.62-10.08-9.72l-3.84-1.26c-2.28-.78-5.04-1.44-5.04-3.9 0-2.16 1.8-3.48 4.92-3.48 3.66 0 6.24 1.68 6.6 5.28h6.72c-.84-7.2-5.88-11.1-13.26-11.1-7.62 0-11.94 3.72-11.94 9.36 0 5.88 4.56 7.68 9.84 9.42l4.2 1.38c2.76.9 4.8 1.38 4.8 3.84s-1.92 3.84-5.52 3.84c-3.9 0-6.84-1.8-7.08-5.22h-6.84c.42 6.96 5.58 11.04 14.28 11.04ZM94.578 45v-6h-3.6c-2.64 0-4.02-1.5-4.02-4.2V19.2h8.22v-6h-8.22V2.34h-7.08V13.2h-5.58v6h5.58v16.08c0 6.3 3.72 9.72 10.62 9.72h4.08ZM107.741 45V15.48L119.381 45h6.3l11.64-29.58V45h7.2V3h-8.88l-13.08 33.36L109.421 3h-8.88v42zM166.535 45.9c9.48 0 16.26-6.36 16.26-17.1 0-9.36-6-16.56-16.26-16.56-9.3 0-16.32 6.18-16.32 16.56 0 9.84 6 17.1 16.32 17.1Zm0-6.06c-5.22 0-9.12-4.08-9.12-11.04 0-6.3 3.6-10.5 9.12-10.5s9.06 4.2 9.06 10.5c0 6.36-3.36 11.04-9.06 11.04ZM200.821 45.9c5.16 0 9.12-2.52 10.92-6.54l.66 5.64h5.7V0h-7.08v17.1c-2.22-3-5.94-4.86-10.44-4.86-8.46 0-14.52 6.84-14.52 16.68 0 10.02 6.18 16.98 14.76 16.98Zm1.32-6c-5.22 0-8.82-4.5-8.82-10.92 0-6.36 3.66-10.8 8.94-10.8 5.16 0 8.76 4.38 8.76 10.68 0 6.48-3.66 11.04-8.88 11.04ZM239.516 45.9c7.5 0 12.84-4.14 14.46-10.98h-6.9c-1.08 3.18-3.84 4.98-7.5 4.98-5.4 0-8.88-3.78-9.36-9.36h23.88v-1.68c-.18-10.32-6.18-16.62-15.18-16.62-8.88 0-15.78 6.48-15.78 16.98 0 9.72 6.66 16.68 16.38 16.68Zm-9-20.34c1.08-4.56 4.2-7.32 8.4-7.32 4.14 0 6.96 2.76 7.86 7.32h-16.26ZM266.101 45V29.28c0-6 3.9-9.54 10.5-9.54h1.2v-6.9h-1.2c-5.28 0-9 2.28-11.04 6.6l-.84-6.24h-5.7V45h7.08ZM288.939 45V25.74c.06-4.14 3.18-7.32 7.8-7.32 3.96 0 6.3 2.34 6.3 5.88V45h7.08V23.94c0-7.14-4.44-11.7-11.22-11.7-4.74 0-8.76 2.34-10.74 5.64l-.6-4.68h-5.7V45h7.08Z"/></g></svg>