<svg version="1.1" preserveAspectRatio="none" xmlns="http://www.w3.org/2000/svg" x="0" y="0" viewBox="0 0 264.3 135.3" xml:space="preserve"><style>.st0{fill:rgba(219, 11, 119, 0.5)}</style><path class="st0" d="M151.1 127.1c-.4.3-1 .4-1.5.3-.6-.2-1.2-.4-1.6-.8l-2.1.3c.3-.2.7-.3 1.1-.5-1.1-.1-2.1-.2-3.1-.1-1 .2-2-.7-3.1-.1l3.1.9c-.3.1-.7 0-1.1.1.1 0 .3.1.4.1-.2 0-.3.1-.4.3.2.1.5.3.7.4-.2.2-.7.3-.7.5l1.7.7c.2-.3.4-.5.5-.7.8-.8 1.9-1.1 3-.9.8.3 1.6.4 2.4.5 0 .1-.1.1-.1.2-.1.2-.6.4-.7.4-.3 0-.5-.5-.6-.7-.3.2-.7.3-1 .4-.4.2-.7.2-1.3.3.7.7-.2.7-.1 1.2.2.1.5.4.8.5.1-.3.2-.5.3-.6.2-.6 1-1.2 1.4-1 .5.3 1 .4 1.5.3.2 0 .4-.1.7 0l.2-.2c-.1-.2-.2-.4-.3-.7.1-.1.2-.1.3-.2.6.1 1.2 0 1.8.1.1 0 .2-.1.4-.2-.3-.2-.4-.6-.8-.8l2-.4c-1.8-.3-3-.2-3.8.4zM256.4 69.5c-2.9-.3-3.3-.2-3.1 1.4l1.9.3c.4-.7 2-.8 1.2-1.7zM95.9 125.8c-1.9-.7-1.9.7-3.1.9l.1.3h1c-.1.2-.3.5-.5.5 0 .1 0 .2.1.2l1.4-.1v-.5h1.2c-.1-.4-.2-.8-.2-1.3zM167.4 128.4c-.1-.2-.2-.3-.1-.5l-.2.1.1.4c-.4-.1-.8-.2-1.2-.2-.1-.1-.2-.1-.2-.1-.1 0-.2.1-.4.2-.3.1-.6 0-.9.2-.4.3-1 .6-.1.9l2.5-.9.1 1.2c.9-.4.9-.8.4-1.3zM112.4 127.7c.1-.1.3-.3.6-.5-.2.1-.3.1-.5-.1-.1 0-.2-.1-.3-.1-.2 0-.3.1-.4.3 0 .1.1.1.1.2-.2-.1-.5-.2-.8-.2v-.3c-.1.1-.3.2-.4.3h-.7l-.7-.1v.2h.4c0 .2.1.4.1.7h.6v.8c.5 0 .9-.1 1.4-.1-.2-.3-.2-.5-.3-.6h1.4c-.2-.1-.3-.4-.5-.5zM162.5 126.9c.3-.1.6-.1.8-.2-.2.5-.3 1-.4 1.6l-.7-.1v.2l1 .2v-.3h-.2c.8-.5.9-.6.6-1.6.8-.3.7-.6-.1-2-.4.7-.7 1.4-1 2.2zM65.7 128.3zM134.4 125.9l2.7.5c-1.7-1.4-1.8-1.4-2.7-.5zM210.4 17.8c-.1.1-.1.1-.2.1.3.3.6.7.9 1 .3.4.4.7.6 1.2.4-.5 1-.7.4-1.5-.2-.2.1-.9.1-1.3l-1-1.7c-.7.7-.2 1.6-.8 2.2-.7-1.1-.7-1.1-2-.7.6.8.7.8 2 .7z"/><path class="st0" d="M93.4 126.4c.2-.3.5-.5.8-.7-1.1-.3-2.2-.3-3.2-.1 1 .2 1.6.5 2.4.8zM112.8 126.1c.1-.1.2-.1.3-.2h-1.6v.1c-.1 0-.2.1-.3.2l-.8.2h.1l-1.5-.2v.3c.5.1 1 .1 1.5.2 0-.1 0-.2.1-.2.6.3.9.3 1 0 .7.6 1.1.5 2.3-.3-.4.2-.8.1-1.1-.1zM101.1 123.6c.1 0 .1.1.2.1v.1h.2c.2.1.4.2.5.2 1-.1 2-.2 3.2-.4l-3.9-.4c-.1.2-.1.3-.2.4zM198.4 116.2c-.1-.1-.1-.2-.1-.3 0 0 0 .1-.1.1l-.2-.2c-.3.4-.8.5-.7.6.1.2.6.4.8.6 0 0 .1 0 .1-.1.2-.1.4-.3.4-.4.1 0 0-.2-.2-.3zM135.9 126.8c-.2-.2-.3-.3-.4-.3-.2 0-.2.3-.5.7.2 0 .5.2.7.2.6.5.8.5 1.7.2-.3-.5-.9-.8-1.5-.8zM69.9 127.8v1.1h.2v.1l-2.1-.1v.2h2.1v.1l.6-.1c0-.1-.1-.1-.1-.2h.8c-.4-.6-.5-1-1.5-1.1zM110.3 123.4c-.2-.7-.9-.8-1.8-.9.2.8.7 1 1.8.9zM166.8 127c-1.1-.5-1.1-.5-2.5-.2l2.5.2zM216.8 18.1l-.5-.3-1 .9c1.3 0 1.8-.1 1.5-.6zM215.7 18.2c-.4-.7-.7-1.1-1.1-1.4-.2.5-.6 1.1 1.1 1.4zM127.4 125.7c-.5-.3-1.1-.3-1.6-.1.4.4 1.1.4 1.6.1zM254.9 68.5c0-.1 0-.1-.1-.2h-1.1c0 .1 0 .2.1.3l1.1-.1zM214.5 14.7c.5.1 1.1.1 1.6.3v-.1c.8.3.9.2 1.5-.4h-.5c.1 0 .1-.1.2-.1-1-.2-1.8-.5-2.3.1.3.1.5.3.7.4l-1.1-.3c-.1 0-.1 0-.1.1-1.2-.4-1.6-.3-2.1.3l2.1-.3zM71.5 128.2l.4.1c0 .1-.1.1-.1.2l.6.6.1-.2c-.2-.2-.4-.3-.6-.6l1.1.5.3-.3c-.6-.3-1.1-.5-1.6-.8-.1.3-.2.4-.2.5zM240.3 61l1.3-.1c0-.1-.1-.2-.2-.3l-1.3.2.2.2zM104.8 123.9h1.9c-.7-.4-.7-.4-1.9 0zM97.6 124.3c0 .1 0 .1.1.2.4 0 .9.1 1.3.1v-.2c-.2-.1-.4-.1-.7-.2-.2.1-.4 0-.7.1zM106 124.8c-.1-.1-.2-.1-.2-.1s-.1 0-.1.1c0 0 0-.1-.1-.1h-1.1l.6.3c.1 0 .3-.1.4-.1l-.2.2c.2 0 .3-.1.4-.1v.1l1.4.1v-.2c-.2-.1-.4-.1-.7-.2-.1-.1-.2-.1-.4 0zM261.2 71.9l1 .2v-.2l-1-.2v.2zM210.7 13.7v-.2l-1.8-.1v.2l1.8.1zM201.3 109.1c.2 0 .3-.1.5-.1l-.6-.3c-.1 0-.3.2-.4.2.2.1.4.2.5.2zM103.4 125.8l1.4.4c-.2-.5-.5-.8-1.4-.4zM167.7 127.2c-.1-.2-.2-.4-.2-.7l-.4.1c.1.2.3.4.3.6h.3zM245.5 73.4h-.7c0 .1.1.1.1.2h.4l.2-.2zM232.4 94.4s.1.2.2.2c.2 0 .3-.1.5 0-.1-.1-.2-.2-.3-.4 0 0-.1.1-.4.2zM151 122.7h-.9c0 .1 0 .1.1.2h.9l-.1-.2zM177.7 125.3c.2.1.3.2.5.4.1-.1.2-.2.4-.3-.3-.1-.5-.2-.7-.3-.1 0-.2.1-.2.2zM107.8 127.6c0 .1.2.2.3.3.2-.1.3-.2.6-.2-.3-.1-.5-.3-.6-.3-.1-.1-.3.1-.3.2zM216.6 16.2h-1.1l.1.2h1.1c-.1-.1-.1-.2-.1-.2zM265 70.8v-.2h-.1c.1.1.1.2.1.2 0-.1-.1-.1-.1-.1-.1 0-.1 0-.2.1 0 .1.1.1.1.2.1 0 .2-.1.2-.2 0 .1 0 .1 0 0zM41.3 120.9c.1.1.3.2.4.2l.4-.3c-.2 0-.4-.1-.6-.2-.1.1-.2.3-.2.3zM117 123.2c.2 0 .3.1.5.2 0 0 .1-.1.1-.3-.2 0-.4 0-.5-.1-.1 0-.1.1-.1.2zM117.9 124.4l-.2.2c.1.1.2.2.4.3l.4-.3c-.2-.1-.4-.2-.6-.2zM149.3 125.2c-.1 0-.3.1-.4.2.2.1.3.1.5.3l.3-.2c-.2-.1-.3-.2-.4-.3zM160.8 126c.2 0 .4 0 .5.1 0 0 .1-.1.1-.2-.2 0-.4 0-.5-.1.1 0 .1.1-.1.2zM81 128.3c0 .1.1.1.1.2h.9l-.1-.3-.9.1zM162.7 129.1c.1.1.2.1.4.2l.2-.2c-.1 0-.2-.1-.3-.1-.1 0-.2.1-.3.1zM64 12s.1 0 .1-.1l-.1.1zM194.2 16.6s0 .1 0 0c0 .1 0 .1 0 0zM226.1 29.3c-.1 0 0 .1 0 0zM69.6 11.9s.1 0 0 0zM120.6 5.9c.7-.1 1.5-.5 1.1-1.2-1.7-.1-3.5-.3-5.2-.3-.6.1-1.1.3-1.7.5.6.6 1.1.9 1.7 1.5 1.7-.1 2.9-.2 4.1-.5zM113.6 7.1c.1.1.1.1 0 0zM134.8 7.1c.2.3.3.6.5 1 .3-.2.6-.2.9-.4.3 0 .7 0 1.1-.2.2-.1.6-.4.5-.6l-.2-.2c0-.2.1-.4.1-.6-.8 0-1.5-.1-2.3.1-.2 0-.4.3-.7.4-.1 0-.2.1-.3.1.1.2.2.3.4.4zM172.6 10.8zM170.2 11c.7 0 1.4-.1 2-.2-.3.3-.7.4-.9.7-.1.1.1.2.1.2.2 0 .6.1.6 0 .1-.3.3-.6.3-.9.1 0 .2 0 .2-.1-.8-.2-1.5-.4-2.3-.5-.1 0-.4.3-.4.4 0 .1.3.4.4.4zM122.8 8.4c-.3-.1-.5-.2-.8-.3l-.4.2c.2.1.5.2.7.3.2 0 .4-.1.5-.2zM72.2 11.4l-1.4.6c.6.1 1.3.1 1.4-.6zM70.7 12zM133.6 7.9c.1 0 .3-.1.3-.1s-.1-.1-.1-.2c-.1 0-.3.1-.3.1-.1.1 0 .2.1.2zM179.9 10.7l-.2-.1.1.3zM134.1 2.9l-.3-.1V3zM114.5 5.4l-.7-.1c.1 0 .2.1.3.1h.4zM107.5 5.9l.9.2zM142.4 6.6l-.3-.1-.3.2.2.2.4-.3zM88.4 9.4l-.3-.1v.3c.1-.1.2 0 .3-.2.1.1 0 0 0 0zM168.5 12c-.1-.1-.2-.3-.3-.4-.1.1-.3.1-.3.2.1.1.2.3.3.4l.3-.2zM178.6 11.6c0-.1-.1-.1-.1-.2-.1 0-.2 0-.2.1s.1.1.1.2l.2-.1zM162.6 12.1h-.3l.2.3zM21.1 116.3c-.1 0-.2 0-.3.1 0 0-.1.2-.1.4h.7c0-.4-.2-.5-.3-.5zM29.1 116.6h-.2c-.1.5.1.6.5.6 0-.1-.1-.3-.3-.6.1 0 .1 0 0 0zM132.3 7h-.3l.1.1c.1-.2.1-.2.2-.1zM20.9 116.4zM120.3 8.9c-.1.4-.2.8.3 1 .4-.5.7-.9 1-1.4-.2-.1-.4-.2-.7-.3-.4-.1-.5.1-.6.7zM132.7 8.9c-.1 0-.1 0 0 0s.1 0 0 0zM132.9 9zM133 9c-.1 0-.1 0 0 0zM133.7 10.9c.2 0 .4-.1.6-.1.2 0 .6-.1 1.4-.3-.3-.1-.7-.3-1.1-.4 0-.1 0-.2.1-.3 0-.2.1-.4.2-.9-.5.5-.8.7-1.1 1-.3-.2-.7-.5-.9-.7.1 1 .3 1.7.8 1.7zM133 9h-.2.2zM184.8 15zM30.4 116.1l.6.6c0-.1.1-.2.1-.3l-.6-.6c0 .1-.1.2-.1.3zM187.1 15.3c.4-.3 1-.6 1.4-.9-.2 0-.4 0-.6-.1h-.4c-.3 0-.7 0-.8.3.1.6.1.7.4.7zM184.1 12.9zM185.1 14.4c-.1 0-.2 0-.2.1v.4c.1-.1.2-.2.2-.3v-.2zM18.7 116.4c-.3.7-.5 1.2-.9 2 .5.1 1.1-.4 1.2-.8-.1-.4.3-1.1-.3-1.2zM180.6 13.4c.2-.1.4-.1.6-.1l-.1-.2c-.2 0-.3.1-.5.3zM151.3 4.8l-.2-.2v.2zM180.6 13.4c.2-.4.5-.8.6-1.2 0-.4.1-.5-.1-.5-.1 0-.3.1-.4.2-.1.4-.1.9-.1 1.5zM107.3 10.6s.1 0 .1-.1v-.2s-.1 0-.1-.1v.4zM142.9 8.7l-.8.7c.2-.1.6.2.8-.7zM153.9 9l.3-.6c-.1-.3-.3-.3-.4-.3-.2 0-.4.1-.6.1-.2.1-.3.2-.5.3.4.8.6.8 1.2.5zM148.4 9.6c-.2-.4-.2-.5-.5-.6-.4.1-.8.1-1.2.2.5.7 1.1.4 1.7.4zM140.3 9.7l-.4-.2c-.1.1-.1.2-.2.2.1.1.2.1.3.2.1 0 .2-.1.3-.2zM159.3 8.1s-.1 0-.1-.1l-.1.1.1.1.1-.1zM151.1 9.3c0-.1 0-.1-.1-.2l-.1.1s0 .1.1.2c0-.1.1-.1.1-.1zM151.7 12c.1 0 .3-.2.6-.3-.2-.1-.4-.3-.6-.5-.1 0-.2.2-.2.3 0 .1.1.3.2.5zM150.9 9.2zM146.7 9.3zM142 9.6zM22.7 116.3s-.1 0 0 0c-.2 0-.3 0-.4.1-.4.6-.6 1.1-1 1.7l1.3.5c.1-.6.1-1.2.2-1.8.2-.1.1-.3-.1-.5zM25.4 115.9c-.2 0-.4.1-.5.2.6.6 1 1.3.9 2.2.5-.9.6-1.6.3-2-.2-.1-.5-.2-.7-.4zM158.9 8.2zM142 9c.1-.9-.1-1.9-.5-2.7-.3.7-.2 1.4.1 1.9.2.3.3.6.4.8zM26.5 114.2c.9.3.9.3 1.3-.7-.5.2-.8.5-1.3.7zM142 9c0 .2 0 .4-.1.6l.1-.2c-.1 0-.1.1-.1.2.1-.2.1-.4.1-.6zM15 118.5l-.1.2c0 .1.1.1.2.2 0-.1.1-.2.2-.3-.1 0-.2-.1-.3-.1zM23.5 114.3c-.2-.1-.3-.1-.6-.3.1.7.3.7.6.3zM227.8 18.9c-.1-.5-.3-.9-.4-1.2-.1.5-.4 1.1.4 1.2zM229.5 45.8v-.4c-.1 0-.1 0-.2.1 0 .1 0 .3.1.4l.1-.1zM233.9 16.4c-.2 0-.4.2-.6.5l.9-.4c0-.1-.2-.1-.3-.1zM230.5 23.2v.9c.6.2 1.1 0 1.5-.3-.4-.1-.6-.6-1-.6-.3-.2-.4-.1-.5 0zM230.8 45zM230.8 45s.1 0 .1-.1v-.4h-.2c.1.2.1.4.1.5zM233.3 16.9zM230.7 29.3c-.1.1-.1.2 0 .3h-.1v.2h.1c0 .2.1.3 0 .5.1 0 .1.1.2.1.1-.2.1-.4.3-.6-.1-.2-.2-.5-.5-.5zM229.5 39.4c-.1 0-.1.2-.2.3.1.1.2.2.4.2l.2-.4c-.2.1-.3 0-.4-.1zM230.1 38.5c.4.3.7.8 1.4.7-.3-.5-.6-.9-.4-1.6 0-.1-.3-.4-.4-.7-.2.6-.3 1.1-.6 1.6zM230.6 29.4zM231.5 42.7c-.1-.1-.1-.2-.2-.2-.1.1-.2.2-.2.3l.1.2.3-.3zM194.1 13v-.2s-.1 0-.1.1v.2c0-.1 0-.1.1-.1zM233.2 44.9c.1-.1.2-.2.2-.3-.1-.3-.2-.4-.4-.4h-.5c.4.3.3.8.7.7zM229.8 46.2c-.3.6-.5 1.1-.7 1.5l.1.1c.2-.2.4-.4.7-.4.5.1 1 .3 1.4.6.2.1.4.1.6.1.3-.1.5-.1.8.4l-1.2 1.2c-.2-.4-.1-.6-.3-.9-.4.2-.7.2-1 .4.6.3.9.7 1.1 1.3.1.3.4.4.6.5.3-.1.4-.5.4-.9 0-.1.1-.1.1-.3l.8.1c-.4.6-.6 1-.9 1.5l.6.8c-.1-.6.1-1.2.7-1.5-.2-.8.6-.9.6-1.7-.6 0-.9-.5-.9-1.2h-.6c-.3.1-.6.1-.9-.3.1-.3.2-.5.4-1-.4.3-.7.4-.7.4-.8-.4-1.3-.5-1.7-.7zM233.7 38.7c-.1-.1-.2-.2-.3-.2-.1.1-.1.2-.2.3.1.1.2.2.2.1.2.1.2 0 .3-.2zM233.4 40.1c.1-.1.3-.2.4-.3 0-.1 0-.1-.1-.2l-.4.2c0 .1 0 .2.1.3zM229.1 50zM230 50.2c-.2-.1-.4-.4-.6-.5-.1 0-.3.1-.3.2.2.5.4.7.9.3zM228 51.7c.3.2.7.3 1 0l-.9-.4c-.1.2-.1.3-.1.4zM230.2 51.6l.1.1c.1-.1.1-.1.1-.2 0-.2-.1-.3-.1-.5 0 .2-.1.4-.1.6zM229.3 45.5zM204.7 13.1l-.1-.1v.2zM210.2 18zM233.5 45.9c-.1.2-.1.3-.2.5h.2v-.5zM213.7 19c.1.3 0 .5.1.7.1.2.2.4.1.6 1-.2 1-.2 1.9-1.4-.2-.1-.4-.1-.6-.2l-1.5.3zM216.8 22.2c0 .1 0 .1.1.2l.2-.2-.1-.1c-.2 0-.2 0-.2.1zM215.9 23.7c0-.1.1-.2.1-.2 0-.1-.1-.2-.2-.3l-.2.3c.2 0 .3.1.3.2zM199.2 16.7l-.4-.2c-.1.1-.2.2-.3.4.1.1.2.2.3.2.1-.2.2-.2.4-.4zM198.3 14.7l.3-.3c-.1-.1-.1-.2-.2-.3-.1 0-.2.1-.3.1 0 .1.1.2.2.5zM198.5 16.8zM31.3 113.6c.6.5.6.5 1.2 0l-.6-.3c-.1 0-.4.1-.6.3zM195.7 17.1c.1 0 .2-.2.4-.5h-.5c-.2.1-.4.1-.5.1v.2c.1.1.3.2.6.2zM229.1 21.1c.7.3.7-.6 1.1-.9-.4-.3-.6-.6-1-.9-.1.7-.1 1.2-.1 1.8zM228.5 17.1h-.5v.2h.5v-.2zM227.9 19.5c.6 0 .8-.2.7-.6l-.2-.2c-.1.1-.2.3-.5.8zM231.1 18.7c-.1 0-.2.1-.5.2.2.7.2.7.9.6-.1-.6-.2-.8-.4-.8zM220.9 21.3v-.2h-.6v.3l.6-.1zM231.8 15.6l-.8-.1v.2l.8-.1zM229 15.3c-.2-.1-.4-.1-.6-.2-.2 0-.3.1-.4.4.4.5.4.5 1-.2zM225.1 15.5zM187 12.4c.3-.1.7-.2 1-.3-.3-.1-.7-.3-1-.4-.1 0-.2.2-.2.4 0 .1.1.3.2.3zM223.2 15.1zM225.8 15.5l-.7-.1v.2c.2 0 .5.1.7.2v-.3zM224.1 14.8c-.3.2-.6.2-.9.3.5.5.5.5.9-.3zM253.7 66.9c0-.1-.2-.2-.3-.2l-.4 1c.6-.2.8-.4.7-.8zM255.2 62.2c0-.1 0-.2-.1-.3l-.6.2.1.2.6-.1zM194.8 14.2l-.6-.3c-.2 0-.5-.1-.5.5.3.4.7.3 1.1-.2zM260.7 69.1v-.2h-.5v.3l.5-.1zM191.7 13.9c.1 0 .1-.1.2-.2-.1-.1-.1-.2-.1-.2-.1 0-.1.1-.2.2 0 0 0 .1.1.2zM249.2 96.3c.1 0 .2-.1.2-.1 0-.1-.1-.2-.1-.3-.1.1-.1.2-.2.3.1-.1.1.1.1.1zM244.2 51.1c-.3.1-.5 0-.9.2.5.7.8.6.9-.2zM243.4 57.1c0 .1.1.1.2.2 0-.3.2-.6.2-.9-.4.1-.5.3-.4.7zM245.7 55.5c-.2-.1-.3-.2-.3-.2-.1 0-.1.1-.2.3.1 0 .2.1.2.1.1-.2.2-.1.3-.2zM243.3 51.3zM187.6 13.1c.1 0 .2 0 .3-.1.1-.3.2-.6.2-.9-.1.3-.4.5-.5.8-.1 0-.1.1 0 .2zM188 12.1zM188.7 14.3c-.1 0-.2.1-.2.1s.1-.1.2-.1zM188 12.1z"/><path class="st0" d="M190.4 14.2c.5.2 1 .3 1.5.4.2 0 .5.1.7 0 .1 0 .2-.2.2-.4 0-.1-.1-.3-.2-.3-.2 0-.4.1-.7.1-.1-.1-.2-.1-.2-.1-.2 0-.3.1-.5.1 0 0 .1 0 .1.1-.3.1-.6.1-.9.1zM242.1 57.5c0-.1 0-.1-.1-.2-.2.1-.3.1-.5.1 0 .1 0 .2.1.3l.5-.2zM189.6 13.5c0-.4.4-.8-.3-.9-.2.6-.4 1.2-.6 1.7.3.1.6.4 1 .6-.1-.5-.2-.9-.1-1.4zM189.5 15.7zM190.7 13.1c-.1.4-.3.8-.4 1.1.2-.3.6-.4.4-1.1zM190.3 14.2zM189.6 15.7c.1-.1.2-.1.3-.2l-.2-.1-.2.2c0 .1.1.2.1.1zM237.6 50.3c.1 0 .1-.1.2-.2l-.2-.2c-.1 0-.1.1-.2.2l.2.2zM237.4 43.3c.1-.1.2-.3.4-.4l-.1-.2-.3.6c-.1-.1 0-.1 0 0zM236.5 40.5zM234.5 40.6zM237.5 51.5zM237.8 51.6l.1-.2c0-.2-.1-.4 0-.6-.2.4-.3.5-.4.6.1.1.2.2.3.2zM241.1 51.4zM234.8 40.7c0-.1-.1-.2-.2-.2s-.2.1-.2.1c.1.1.1.3.2.4.2-.1.2-.2.2-.3zM233.4 53.3c.4-.2.6-.2 1-.4-.1-.1-.3-.2-.5-.3-.1.2-.3.4-.5.7zM237 41c.2-.4.5-.8.8-1.2-.3-.1-.6-.3-.8-.4-.2.5-.4.8-.4 1.2v.5c.1 0 .3-.1.4-.1zM235.2 54.2V54h-.5c0 .4.2.4.5.2zM235.1 47.1c.1.1.3-.1.5-.1-.3-.4-.4-.8-.6-1.2-.2.5-.3 1 .1 1.3zM239.6 51.4c-.2-.1-.4-.1-.6-.3 0 .1 0 .2-.1.3.2.1.4.2.6.4.1-.2.1-.3.1-.4zM235.3 53.3c.5-.1.9-.6.9-1.2l-1.1.6.2.6zM239 51.4zM241.5 51.4c-.1-.1-.2-.1-.3-.2 0 .1 0 .1-.1.2l.3.2c.1-.1.1-.2.1-.2zM237.6 56.9c.1.3.1.6.2.9.4-.5.5-1.1.3-1.7-.4.2-.6.5-.5.8zM237.5 55.3c-.8.1-1.6.2-2.7.4.4.4.5.7.6.9l2.1-.9c0-.1-.1-.3 0-.4zM235.1 58.5c.7-.1 1.3-.8 1.9-.3.1-.5 0-.8-.4-.8h-.1c-.4 0-.9-.1-1.4-.1v1.2zM235 50.1c-.1 0-.2.1-.2.1-.1.5-.1 1-.3 1.5.7.2 1.2 0 1.3-.5 0-1.1.6-.7 1-.9-.2-.2-.4-.4-.6-.7 0-.4.1-.7.1-1.1-.3.3-.3.3-.4.7-.2.7-.2.8-.9.9zM237 58.2zM184.4 13.2c0-.1-.1-.3-.1-.4 0 .1-.1.1-.1.1s.1.2.2.3zM236.1 82.4c.9.1.6-.9.9-1.5.2-.1.5-.2.7-.2.2 0 .4.3.7.7v-1.3c-.5-.3-1-.4-1.4-.6-.3.9-.9.7-1.5.6-.7-.1-1.3-.1-1.8.7-.2-.1-.3-.2-.4-.2-.2 0-.4 0-.5-.1.1.2-.1.6.1.7.3.4.5 1 .4 1.5.1.2.1.4.2.6.4-.5.4-.5.4-.9 0-.2 0-.5.1-.6.4-.6.7-1.2 1.4-1.2.4.8.5 1.3.7 1.8zM244 78.7c.2.3.5.3.6 0 .1-.2.2-.5.1-.7-.1-.1-.3-.2-.4-.2h-.2c-.2 0-.3.3-.7.4.2.2.4.3.6.5zM243 76.4l-.8.1c-.1.6-.1 1.2-.2 1.7l.1.1c.4-.6.7-1 1-1.6 0-.1 0-.2-.1-.3zM236.1 79.2l.5.1V79c-.2 0-.3 0-.5.2 0-.1 0-.1 0 0zM242.9 81.3c-.2-.2-.3-.5-.4-.7-.1 0-.1.1-.2.1.1.3-.1.7.1.9 0 .2.3.1.5-.3zM249.8 67.8l.3.3c0-.1.1-.2.1-.2l-.4-.1zM244.9 80.1c.1.1.2.1.4.2 0-.1 0-.1.1-.2-.1-.1-.3-.1-.4-.2-.1.1-.1.2-.1.2zM250 68.2zM244.8 86.7h.6v-.3l-.6.1c.1.1 0 .2 0 .2zM234.5 83.5h.6v-.3c-.2 0-.4.1-.6 0v.3zM233.1 76.2c-.3 0-.6.2-1.4 1 .6-.1 1.3-.3 2-.4-.2-.3-.4-.5-.6-.6zM232.8 74.5l-1.1-.2c.4.8.4.8 1.1.2zM238.9 76.3c-.2-.1-.5-.2-.7.1.2.2.4.4.3.6-.3.6.1 1.1.6 1.4h.2c0 .4-.1.6-.1.9.3-.1.7 0 1 0 .6.2.8-.2 1.2-.8-.2-.1-.4-.2-.6-.4.1-.3.3-.6.4-.9.1-.2.2-.3.4-.5-.2-.4-.3-.5-.5-.6-.1 0-.3 0-.4.1-.4.1-.8-.1-1.2 0-.4.2-.5.2-.6.1zM239.5 74.3c-.2.4-.6.3-.9.5-.2.2-.4.5-.7.4s-.6-.2-.8-.5c-.4-.6-1.2-.7-1.8-.4l-.2.2c.1.1.3.1.4.1.2 0 .4-.1.6.4-.3.1-.5.2-.8.3v.2c1.5.3 3-.1 4.6.1-.1-.4 0-.7-.1-1.1-.1-.1-.2-.1-.3-.2zM234.5 83.3zM232.8 74.5zM231.9 56.9c-.1.1-.1.1 0 0zM230.7 75.4c.9.4 1.8.5 2.6.3v-.2c-.4 0-.9 0-1.3-.1-.2 0-.5-.2-.8-.2-.2-.1-.4.1-.5.2zM88 125.3h.5v-.3l-.5.1v.2zM229.2 28zM229 38.7l-.5.1c0 .1 0 .1.1.2.1-.1.3-.2.4-.2v-.1zM229.1 31.1h.1zM230.2 31.1c-.2-.2-.4-.3-.5-.4-.2 0-.3.1-.6.4.5.2.8.3 1.1 0zM228.1 41.3c.3 0 .5-.1.6-.7l-.7.3c0 .2.1.4.1.4zM66.1 128.7c0-.1 0-.1 0 0zM131.7 10.4l-.1-.1c-.2 0-.4-.1-.5-.2.1.2.3.3.3.5 0 .1.1-.1.3-.2zM229.5 32.2c-.1 0-.1.1-.2.2.1.1.1.2.2.2s.1-.1.3-.2c-.2-.1-.3-.2-.3-.2zM228.9 36c.4-.2.5-.3.3-.7h-.2c-.1.2-.1.4-.1.7zM229.6 28c-.1 0-.3 0-.4.1l.6.9c0-.8 0-1-.2-1zM228.2 47.1h-.2c-.3 0-.5 0-.7.2h.2c.1.1.5 0 .7-.2zM227.2 47.3zM227.2 47.3c-.1 0-.1 0 0 0zM227.2 47.3zM226.4 34.1c.3.2.6.6.9.8.1-.7-.1-1-.4-1-.2 0-.3.1-.5.2zM227.4 46c-.3.1-.5.2-.4.7 0 .1.2.2.2.1.3-.2.4-.4.2-.8zM230.3 26.6c0 .1-.1.1-.1.2.1.1.2.1.3.1l.1-.1c-.1-.1-.2-.2-.3-.2zM228.1 33.3c.1.1.2.2.3.2 0 0 .2-.1.2-.2 0-.2-.1-.3 0-.5-.4.4-.5.4-.5.5zM237.8 91.2c-.6.1-1.3.4-1.9-.2-.1-.1-.4.1-.6.1 0 .8-.4 1.6-1.1 2-.1-.3-.1-.6-.2-.9-.3.3-.6.5-.9.8-.3.4-.3.9.1 1 .6.2 1.2.2 1.8.3.5.1 1-.1 1.5-.1.6.1 1.1-.3 1.5-.6-.4-.9.5-1.3.8-2.3-.5-.1-.8 0-1-.1zm-2.1 2.2c-.1-.5.1-1 .5-1.2.3-.2.6.2.7.6-.1.4-.7.8-1.2.6zM225.6 85.8c-.2 0-.3.2-.7.4l1.3.3c-.2-.5-.4-.7-.6-.7zM34.8 117c0 .1 0 .1.1.2.1-.1.3-.2.4-.2 0-.1 0-.1-.1-.2l-.4.2zM225 86.2zM228.1 87.3c-.1 0-.2 0-.3.1l.6.6c0-.5-.1-.7-.3-.7zM228.4 85.5l-1.6.4c1.2.2 1.2.2 1.6-.4zM228.3 83.4zM228.2 83.4zM228.4 87.9v.3c.1.1.2.1.3.1 0 0 .1-.1.1-.2s-.1-.2-.2-.2h-.2c.1 0 .1 0 0 0 .1 0 0 0 0 0zM226.5 74.9c.1-.4.3-.8.4-1.2.3-.5.1-.8-.4-.8-.2.6-.3 1.4-1.1 1 0-.3.2-.6.2-.8-.4.4-1 .7-1.4 1.1.2.6.9.8.7 1.8.7-.3 1.3-.2 1.6-1.1zM228.3 83.4zM261.1 69.9c-1.1-.1-1.3.1-1.3 1.4l.9.2c.2-.6.9-.8.6-1.5l-.2-.1zM255.9 74.8h.2c0-.1.1-.2.1-.3l-.3.1v.2zM263.3 72.1c.1 0 .3.1.4.1V72c-.1 0-.3 0-.4-.1v.2zM255.3 72.7l-.1.1c0 .1 0 .2.1.3.1 0 .1-.1.4-.3-.2-.1-.3-.1-.4-.1zM220.6 82.1v-.2h-.4v.2h.4zM221 81.2c.1-.2.1-.4.1-.6s-.2-.3-.3-.3c-.2 0-.3.2-.5.3.1.5.2.9.7.6zM253.2 84.3l.5.2v-.2c-.2-.1-.3-.1-.5-.3.1.1 0 .2 0 .3zM222.9 86l.7-.1v-.3c-.2 0-.4.1-.6 0 0 0-.1.2-.1.4zM231.8 84.2l.4-.2c0-.1 0-.2-.1-.3l-.4.3.1.2zM236.8 77l-.3-.6-.1.1c.1.2.3.4.3.6l.1-.1zM227 75.6l.5.1v-.1h-.5c-.1 0 0 0 0 0zM233.7 87v-.3h-.4v.3h.4zM233.4 79.4l-.7-.3c0-.3 0-.7-.1-1-.1-.2-.2-.4-.3-.4-.1 0-.3.3-.3.4-.2.5-.2 1-.3 1.5.5.1 1.1.1 1.6.1l.1-.3zM234.4 76.8c.5.4.7.2 1-.2h-.5c-.1-.2-.3 0-.5.2zM235.4 88.8c.1.2.2.5.4.7.1 0 .4-.3.5-.5.3-.6.6-.6 1-.5.3.1.7.2.8-.4-.7-.2-1.3-.2-2.1-.4.3-.4.5-.6.7-.8l-1.8.3c0 .3-.1.6-.1.9.4-.2.6-.1.7.5-.1 0-.1.1-.1.2zM233.8 78.5v.2c.4-.1.9-.2 1.3-.3.1 0 .1-.2.2-.3-.3-.1-.5-.3-.7-.4-.2.3-.5.6-.8.8zM234.6 79.5c.2 0 .4 0 .6.1v-.3h-.6c.1.1.1.1 0 .2zM234.4 70.2c-.1 0-.2 0-.2.1-.3.2-.5.6-.3.9.3.5.6 0 1-.2-.1-.4-.2-.7-.5-.8zM233.8 86.1c0-.9-.6-.9-.9-1.2-.2.1-.5.1-.7.3-.2.2-.4.3-.6.4v.2c.7.1 1.5.2 2.2.3zM241.5 80.3c-.6-.1-1-.1-1.4-.1-.4.1-.7 0-1.1.1.6.5 1 .9 1.6 1.3l.9-1.3zM240.1 83.1c-.6-.3-1-.4-1.5-.6-.1.2-.4.5-.6.6.6.7 1.5.7 2.1 0z"/><path class="st0" d="M238.1 83.2h-1.7c-.1.2-.4.5-.6.6s-.5.3-.4.8h2.2c.2-.5.3-1 .5-1.4zM230.6 72.9c-.1.2-.2.3-.2.4 0 .1.1.2.2.3.1-.1.2-.2.2-.3l-.2-.4zM229.9 74.1c-.2 0-.4.1-.5.2.1.3 0 .5.1.7l-.9.4c.8.4 1.4.4 1.6.1-.1-.2-.1-.4-.1-.6.2-.2.4-.3.7-.4-.4-.2-.6-.3-.9-.4zM234.8 87.9zM236 85.8c.3 0 .5.2.9.2-.2-.4-.2-.6-.4-.7-.2 0-.4.2-.5.5zM238.1 83.2zM227.1 84c.3-.8.7-.7 1.1-.7l-2-.4c.1.3.1.7.3 1 .1.5.5.5.6.1zM117.3 124.4c0-.1 0-.2.1-.2h-.2-.1v.2h.2zM120.7 127.5c0 .1.1.2.1.3.3-.1.6-.1.9-.3 0-.1 0-.2-.1-.3-.3.2-.6.2-.9.3zM125.8 123.6c0 .1.2.2.3.3.1-.1.1-.2.2-.4.6.1 1.1-.1 1.6 0 0-.1.1-.1.1-.1l-.1-.1c-1 .1-2.1-.5-3.1-.1.3.3.7.4 1 .4zM117.1 124.2zM125.6 124.6zM107.5 122.3c-.1.3-.2.6-.3 1l1-.5-.7-.5zM108.1 128.2c-.1.1-.1.1-.1.2s.1.2.1.2c.1-.1.1-.2.2-.3-.1-.1-.2-.1-.2-.1zM115.2 125.6c.7.1 1.4.1 2.1 0-.7-.4-1.1-.6-1.7-.9.2-.1.5-.1.7-.2.2-.1.3-.2.4-.4-2.6-1-2.6-1-4.1.8.1 0 .2 0 .3.1h-1.1c-.8-.3-1.5-.5-2.2-.7-.1-.3-.3-.4-.5-.5h-.3c0 .1.1.2.1.3h-.2c-.8-.2-1.3.2-1.4.6-.1.5.5.6 1.1.6h.2c-.1.1-.2.3-.3.6 0 .4.2.5.5.5.4-.2.9-.1 1.3.1.1 0 .2-.1.3-.2v-.2c-.4-.2-.9-.5-1.3-.7.8 0 1.5.1 2.3.3.1 0 .3 0 .4-.1.6.1 1.2 0 1.8-.1.1 0 .3 0 .4.1-.1.2-.1.4-.3.7.3.2.6.4.9.4l-.3 1.2.5.1c0 .3-.1.6-.2.8h.5c.1-.3.2-.5.3-.8l.7-1.3h-.4l-.7-.7c.1-.4.1-.4.2-.4z"/><path class="st0" d="M113.4 123.1v.1l.6.1zM108.9 123.8v-.1zM143.2 124.5c.1-.1.2-.3.4-.4 0-.1-.1-.1-.1-.2h-1.1c.3.7.6.7.8.6zM148 123l1.2-.7c-.1 0-.2-.1-.3-.1-.4-.1-.7.2-.9.8zM149 126.7l.2.2c.1-.1.1-.1.1-.2-.1-.1-.1-.2-.2-.2 0 0-.1.1-.1.2zM150.2 124.4c.1 0 .3-.1.4-.1v-.2l-.4.1c.1.1.1.1 0 .2zM117.8 125.7c0 .1.1.2.2.2l.2-.3c-.1-.1-.2-.1-.3-.1-.1.1-.1.1-.1.2zM126.8 128c.7.5 1.5.4 1.9-.3h-.3c-.5-.1-1 0-1.6.3zM141.2 127.2v.2h.4v-.1l-.4-.1zM136.4 127.9c-.1 0-.3.1-.4.1.4.8.4.8 1 .5-.2-.4-.4-.6-.6-.6zM93.8 124.6c-.2.3-.4.4-.8.7l1 .1c0-.3-.1-.5-.2-.8zM68.3 129.1v.2c.3-.1.7 0 1-.1v-.1h-1zM69.7 126.4c-.3 0-.5.1-.7.2h1.2c-.2 0-.4-.2-.5-.2zM76.4 127.3c-.2 0-.3.2-.6.3h1c-.2-.2-.3-.3-.4-.3zM81.1 128.7c.1.1.2 0 .4 0 0-.1 0-.2-.1-.3 0 .2-.1.3-.3.3zM34 115.7c-.4 0-.9.3-1.6.6.3.2.5.4.6.4.6-.5.9-.1 1.2.2.2-.2.4-.4.7-.4.2 0 .5.1.7.2 0-.2 0-.3.2-.5-.5-.3-1.1-.4-1.6-.5H34zM34.8 113.6c-.1 0-.3 0-.5-.2v.2l.4.2c.1 0 .1-.1.1-.2zM86.9 127.2c-.1 0-.3.1-.5.2.3.1.6.3 1 .4-.3-.4-.4-.6-.5-.6zM36.5 115.7zM36.5 116c.3 0 .5.2.8-.4-.4.1-.6 0-.8.1v.3zM98.2 125.2c-.1 0-.2.1-.3.1v.2l.6.1v-.2c-.1-.1-.2-.2-.3-.2zM92.4 126.1c-.3 0-.6 0-.8.2l1 .6c.1-.3.2-.4.4-.7-.2 0-.4-.1-.6-.1zM104.1 126.5c-.1 0-.2.1-.3.2l.6.4c-.2-.4-.2-.6-.3-.6zM103.7 124.6l-1.7-.1v.2l-2.3-.1c.7.4 1.6.5 2.3.2.1.1.3.3.4.2.4-.1.9-.3 1.3-.4zM104.7 125.5c.1.1.2.2.3.2.1 0 .2-.1.2-.1v-.1h-.5zM101.4 125.4h-1.2c.6.5.6.5 1.2 0zM106.3 125.7c-.1 0-.2 0-.3.1v.2c.2 0 .4 0 .6.1v-.2c-.1-.1-.2-.1-.3-.2zM92 123.9l-.2-.2c-.1.1-.1.3-.2.4l.2.2c0-.1.1-.2.2-.4zM152.7 120.4c-.1-.1-.1-.2-.2-.2s-.1 0-.2.1c0 .1.1.2.2.3l.2-.2zM126.9 124.7c0-.1 0-.2-.1-.2-.2.1-.4.1-.5-.1h-.3c-.2 0-.4.1-.5.1.5.7 1 .3 1.4.2zM236 101.3zM232.6 104.5l1.8-.7-1.3-1.1c-.3.7-.4 1.2-.5 1.8zM238.7 101.6c-.1-.8-.5-1.3-.9-1.3-.5-.1-1 .3-1.8 1.1.5 1.1 1.2.2 1.9.2 0 .1.1.2.1.2-.5.6-.9 1.1-1.4 1.6.2.2.4.4.5.8.2 0 .5.1.7.1.8.3 1.3-.2 1.8-.7.4-.5.7-.9 1-1.5l-2.4.9c-.3-.9.4-1 .5-1.4zm-1.2 1.9c-.1-.1-.2-.1-.2-.2s.1-.2.1-.2.1.1.3.1c-.1.1-.1.2-.2.3zM231 103.6l.8.1v-.2c-.2 0-.6.1-.8.1zM231 103.6zM238.3 98.4c-.1-.1-.3-.1-.5-.2-.2 0-.3.1-.5.3.2.2.4.4.5.7.3-.2.4-.5.5-.8zM226.3 103.7zM222.5 104.4zM230.1 104.8c.1-.5.1-.8.2-1.2-.4-.1-.7-.3-1.1-.4 0 .9.2 1.3.9 1.6zM226.3 103.7c-.1 0-.1.1-.2.2.1 0 .1.1.2.1s.1-.1.2-.2c0 0-.1-.1-.2-.1.1 0 0 0 0 0zM132.9 118.4zM223 91l.5.1v-.2l-.5-.2c.2.3.1.2 0 .3zM133.1 118.6s0-.1.1-.2h-.2-.1v.2h.2z"/><path class="st0" d="M250.1 98.8c.2-.2.6-.4.8-.5-.8-1.8-1.9-.9-2.9-1 0-.7.2-1.5.6-2.1-.1-.1-.2-.2-.3-.4l.7-.4c0-.1 0-.1-.1-.2l-2.3.5c-.1-.1-.3-.3-.4-.3-.8 0-1.6.1-2.2.2l-.5 1.9-1.1-1.1c0-.4.2-.8.2-1.1.4-.1.9-.2 1.3-.3.6-.1 1.1-.2 1.4-1.2.2.2.4.3.6.5.3-.6.5-1.2 1.2-.8v.8c.6-.4 1.1-.9 1.6-1.3-.3-.4-.7-.8-1.1-1-.7-.2-.7-.2-.8-1.3-.5-.2-1.1-.2-1.6-.4-.2 0-.3-.2-.5-.5.1-.3.3-.5.5-.7.3-.2.6-.2.9-.3-.5-.2-1-.3-1.5-.4h-1.3c.2-.8.3-1.5 1-1.7-.2-.2-.3-.4-.3-.5.1-.3.3-.5.4-.8.1-.2.4-.5.5-.7 0-.2.1-.5.1-.7-.2 0-.3.1-.5.1-.2.2-.3.8-.8.5-.1-.7-.2-1-.5-1.1-.1 0-.2 0-.4.1-.6.1-1.1.3-1.8.4l-.8-.3c0 .1-.1.2-.1.3l1 .2c.1.3.1.5.1.7-.2.3-.4.6-.5 1-.2.7-.5.8-1 .6-.4 0-.8-.2-1.1-.3 0 .3 0 .6-.1.8-.2.5-.1.9.3.9.3 0 .6 0 .9-.2.2-.1.2-.4.6-.8v1.6c-.5 0-1 .1-1.6.1.1.4.1.7.2.9-.1.3-.4.7-.5 1 .2.5.5 1.1.8 1.6.4-.6.7-.9 1.3-.6 0 .2 0 .4-.1.6l.7.4c-.4.6-.7.4-1 .4-.7-.2-1.4.1-1.7.8.2.1.4.1.5.2.4.1.8.1.8.7.1.3 1.2.5 1.6.3.1-.1.1-.3.2-.5l-.5-.3c-.1-.1-.3-.1-.4-.2.7-.5 1.2-.6 1.2-.1.1.6 0 1.2-.5 1.6-.2.2-.4.3-.7.4-.2-.1-.5-.5-.6-.5-.7.1-1.3.4-2 .6-.3.2-.7.2-1 .3h-1.4c0 .3-.1.5-.1.8-1.8-1-3.9-.5-5.7-.7-.2-1 .5-1.7 1.2-2.3-.2-.1-.4-.3-.6-.5l1.4-.3c-.1-.1-.1-.2-.2-.2l-1.2.1c.1-.2.2-.4.3-.7-.1-.1-.2-.1-.4-.1-.2.1-.4.1-.6-.4.4-.2.8-.3 1.3-.5 1.1-.5 1.3-.5 1.8.7.1.1.1.1.3.2.4-.6.6-1 1-1.7l-.2-.4c.3-.6.4-1.1.7-1.5-.5-.1-1.1-.1-1.7-.1v.3c.3.2.3.6.2 1-.1.3-.5.5-.7.4-.1 0-.1 0-.2-.1-.4-.1-.8-.4-1.1-.6-.1.1-.1.2-.1.3-.2.7-.4 1-.8.6.1-.1.3-.1.4-.2-.8-.6-1.7-1-2.7-1.2-.3 0-.5-.1-.7-.2-.1 0-.2-.1-.2-.1h-.1c-.6-.2-.7-.5-.9-1.3-1.2-.2-2.4-.4-3.6-.7-.4-.1-.7-.3-1.1-.5h-.1c.3-.3.6-.5 1-.7.6-.1 1.2-.2 1.8-.2v.2l.2.1.1-.3.1-.3c-.1 0-.1-.1-.2-.1 0 .1-.1.3-.1.4-.7-.2-1.3-.2-1.9-.4h.4v-.3l-1.3.1h-.4c-.8-.1-1.7-.1-2.5-.2-.1-.2-.2-.3-.4-.4.2-.7.5-1.2 1.9-1.4-.4-.2-.7-.5-.8-.7.3-.3.5-.6.8-.7.3-.3.7-.4 1-.7.1-.2.1-.5.1-.8-.3 0-.6 0-.9.1.2-.1.4-.2.6-.2h.2c1 .8 1.2.8 1.9-.6-.6-.2-1.1-.3-1.7-.4l.3-.3h.1l.2-.2h-.1c.4-.4.9-.5 1.3-.5.6.2 1.1 1 .8 1.5-.4.7-.1 1.1 0 1.7-.2.1-.5.1-.7.2-.2 0-.5-.2-.7-.3 0 .3-.1.6 0 .6.5.3.6.7.6 1.2 0 .4.3.7.6 1.1.1.1.2 0 .3 0 .1-1.3.2-1.3 1-1.1.2 0 .5.1.7.1.6 0 1.2-.1 1.9-.1h.7c.5-.3.8 0 1.1.6l-1 .5c0 1.3 0 1.3.8 1.3-.1-.4-.1-.7-.1-1 .3-.3.7-.1 1 .1.3.2.7.4 1 .1-.1-.6-.7-.7-.8-1.4.5-.2 1.2-.5 1.7-.6.2-.1.4-.4.4-.6 0-.1-.1-.2-.2-.2-.5-.5-1-.9-1.6-1.4.1.7.2 1.2-.3 1.6-.4-.7-1.5-.4-1.3-1.7-.5.1-1 .3-1.6.4v-.3l-1.1-1.1c.5-.2 1.1-.4 1.8-.5.6.2 1.2.3 1.6.6.2-.6.2-.6.8-.8 0-.3.1-.6.2-1-.4-.6-1.2-.6-1.9-.4-.6.2-1.2.4-1.8.3-.8-.1-1.6-.3-2.3-.4-.1 0-.1-.1-.2-.1 0-.2.1-.5.1-.8-.3.1-.5 0-.8 0 .2.3.2.5.4.7-.8.2-.8.2-1.2-.5-.2-.2-.4-.4-.5-.7.2-.7.4-1.4.7-2 .4-.5 1.1-.7 1.6-.9.2.1.5.3.8.4.4.1.3.4.2.7.5-.3.9-.8 1.1-1.4-.8-.5-.2-1.3-.4-2.2.2 0 .4.1.6.1.4-.1.8.2 1 .5-.3.2-.5.2-.7.3-.2.2-.4.3-.2.8.5-.3 1.1-.7 1.4.1.2.5.7.7 1 1 .6.6 1.1.4 1.7-.5.2 0 .4 0 .6.1.7.2.8.1 1.2-.8-.5-.8-.5-.8.1-1.4.1.2.3.4.3.6.3-.3.6-.6.8-.6.9.1 1.8-.5 2-1.4 0-.2.3-.3.4-.3.2.1.3.3.2.5-.2 1.3.1 2.7-.7 3.9.9.4 1.3-.7 2-.8.2.1.3.3.5.5.4-1.2.4-1.2 1.2-1.2h.2c.8-.4 1.4.1 1.8 1l1.3-.7c0 .1 0 .1.1.1-.1 0-.1.1-.1.1 0 .1.1.2.2.3h.1c.1.5.4.4.7-.1.1 0 .1 0 .2-.1h-.3c-.4-.4-1-.7-1.7-.5l-.1-.3c.2-.2.4-.3.7-.4-.4-.3-.6-.1-.8.1-.2.3-.5.5-.8.1 0-1.1.2-1.3 1.8-1 0-.1.1-.2.2-.4.4-.8.4-.8.9-.3.2.1.4.3.6.5.2-.3.4-.5.6-.6.3.5.6 0 .9-.1.4-.2.8-.3 1.2.2.3.4 1.2.1 1.3-.4.3-.9.8-.7 1.2-.7 0-.3.1-.6.1-.8-.2-.1-.4-.2-.5-.4.1-.4.3-.7.4-1l-.2-.2c-.4-.7-.4-.9.2-1.4.4-.3.9-.5 1.3-.8l.6-.6c-.4-.2-.9-.4-1.4-.2l.7.6c-1 .3-1 .3-1.4-.9.3-.5.5-.3.8-.3s.7.2.9-.4c-.1-.3-.2-.5-.3-.8-.4.1-.8.2-1.2-.3.1-.2.3-.5.4-.6.3-.1.6 0 .9 0l.1-2c-.5-.2-1.1-.3-1.6-.4-.2.5-.1.6.2.8.2.1.5.4.6.6-.3.4-.5.7-.8 1-.1-.6-.4-.7-.9-.4.1.1.1.3.2.4.2.2.1.5-.1.7-.1.1-.4-.1-.4-.2 0-.5-.2-.9-.1-1.4 0-.1.1-.2.1-.3.3 0 .5.2.8.2.2-.6-.1-1.2-.7-1.4h-.1c-.1-.1-.3 0-.5 0 .1.4 0 .6.1.9-.5.2-.7 0-.7-.6-.1-.7-.6-.8-1.1-1-.2-.1-.5.2-.7.4-.7.6-1.4 1.4-2.1 2.1v1.3c.3 0 .5.1.8.1-.4.5-.9.8-1.4 1l-.6-.9c-.2 1-1.1 1.7-2.1 1.7.2-.7.1-1.5-.4-2.2-.1.6-.1 1.2-.2 1.8-.3.5-.5 1.1-.9 1.5 1.2 1.5 1.2 1.5.9 2.1-.6-.5-1.1-.8-1.8-1.3-.4-.2-.5-.9-.1-1.1.6-.5.9-1.3.8-2.1-.1-.8.5-1.6 1.3-1.7.2 0 .5.1.6-.1.1-.2.1-.6.1-.8 0-.2.2-.4.3-.6.1-.2.1-.4.1-.6-.1-.1-.3-.2-.5-.3-.3.1-.7 0-.6.6 0 .1-.1.3-.2.3-.4 0-.4.4-.7.7l-1-.5-.7.2c.1.9-.6 1.3-.7 2.1-.2-.1-.3-.1-.4-.2-.1-.2-.2-.3-.1-.5-.3 1.1-.9 1.5-1.3 1.3-.1-.2-.1-.5-.3-.7.2-.2.3-.4.5-.5.1-.1.3-.2.4-.3-.3-.2-.7-.4-.7-.7-.1-.3.2-.8.2-1-.2-.6-.4-1.1-.5-1.7-.2.2-.3.4-.6.4v-.3l-.5-.2c.4-.5.3-1 .1-1.4l-1.7.9c.5.5.8.9.5 1.5.1-.1.2-.3.4-.4.2.1.4.3.5.5l-.6.7c-.4 0-.4-.4-.3-.7-.1 0-.2 0-.3-.1.1-.9-.3-1.1-.7-1.4-.1-.1-.3.1-.5 0 .1.4 0 .6.1.9-.5.2-.6 0-.7-.6-.1-.4-.2-.6-.4-.7.1-.4.3-.9.5-1.2-.2-1-.6-1.5-1.4-1.4h-.4c-.8 0-.9.2-1 1.3 0 .1-.1.1-.2.3-.7-.4-1.5-.3-2.1.1-.1.1-.2-.1-.4-.2.1-.4.6-.6 1-.6h.7c-.3-.4-.6-.9-.9-1.4.4-.3.9-.5 1.3-.7l-.1-.7 1.1-1.3c0-.1-.1-.2-.1-.2h-.3c-.2 0-.4 0-.6-.1-.8.1-.8 0-.7-1 .4-.3.8-.5 1.1-.8-.6 0-1.2-.2-1.6.7-.1.3-.7.2-.9-.1 0-.2.1-.5.2-.9.3-.1.6 0 .9-.1v-.4c.2-.6.6-1.1.4-2 0-.1.2-.4.4-.5.3-.2.6-.2.9-.3.7-.2 1.2.4 1.7.7.6-.7.6-1.2.4-1.5-.3 0-.5-.2-.7-.2 0-.1 0-.2-.1-.2.3-.3.7-.5 1.1-.8l-.4-.7c-.4.2-.6.3-.9.4-.2.1-.5.1-.7.1-.2 0-.3 0-.5-.2.1-.2.1-.4.3-.7 0-.1.1-.1.2-.2.1-.6-.2-1.2-.6-1.7.4-.5.6-.9.8-1.3-.6-.7-.4-1.3.3-2.1h-1.1c-.3 0-.5-.1-.7-.2-.3-.5-1-.9-1.7-.9.5-.7.9-1.2 1.3-1.7l.1-.1.6.8v-1c.3-.1.5-.1.7-.2.1-.4.3-.7.4-1.1l-.5-.9v-.2c.1-.3.4-.6.1-.8-.1-.1-.5.1-.5.2-.2.5-.6.8-1.1.9-.5 0-.9.2-1.4.1-.4.1-.6-.2-.6-.7.3-.1.5 0 .8-.1.2 0 .5-.1.7 0h.2c0 .1-.1.1-.1.2l1 .1c-.1 0-.3-.2-.4-.3.2-.2.4-.3.6-.5-.3-.4-.5-.3-.7-.1-.1.1-.3.2-.4.2v-.4c.1 0 .2.1.3.1-.1-.2-.1-.4-.1-.6.1-.3.3-.4.8-.3.7.1 1.3 0 2-.1-.5-.6-.8-1-1.2-1.3.1-.3.2-.7.2-1 .1 0 .2.1.3.1.7.7.8.7 1.5-.1.2-.3.5-.6.8-.1.3.3.5.3.7 0l-.7-1.3c-.3 0-.6-.1-.9-.2.1-.6.1-1 .2-1.6-.2 0-.5-.1-.8-.2v1.1c-.3-.4-.5-.8-.9-1.1-.3-.2-.7-.3-1.1-.3-.4 0-.8.1-1.1.5.2.1.4.1.6.2.3-.1.7.1.9.4-.4.2-.7.4-1 .3-.6-.2-.7.2-1.1 1 .2.2.4.3.6.6-.2-.1-.5-.2-.7-.1h-.1c-.2-.1-.4-.2-.7-.3h-.1c0-.1-.1-.1-.1-.2.5-.1.4-.7.4-1.1.2-.6-.2-.7-.4-1-.2-.3-.4-.6-.8-.8.5-.3.9-1.4 1.6-.9 0 .2 0 .3-.1.6.5.1.9.3 1.2-.3.2-.4.2-.9-.2-1.2-.8.6-1.4.9-2.2.3.2-1.1-.6-1.4-.9-2.2-.3.2-.7 0-1 .6.4.2.9 0 1 .7 0 .2-.1.4-.3.6.6.3.6.3.8 1.2l-2.4.4c.6.7.9 1.6.8 2.5l-.2.2c-.2-.5-.5-1-.8-1.6-.2.4-.5.6-.6.8-.3-.2-.5-.6-.7-.6-.3 0-.6 0-.8.2-.4-.3-.5-.7-.9-.8-.4 0-.8 0-1.1.2.1.4.1.6.3 1l-1 .4c-.4.7.1 1.1.2 1.6-.4-.2-.5-.6-.7-.6h-.7v-1.2c-.3-.1-.7-.3-1.1-.3.3-1.3.3-1.3-.1-1.9-.1.3-.4.5-.6.7v-.2l-.7-.2 1-.1-.1-.2h-1.3c0 .1.1.2.1.3l.3-.1v1.1c-.3-.4-.5-.8-.8-1.1-.3-.2-.6-.3-1-.3s-.6.1-1 .5c.3.2.7 0 1 .2-.1.1-.2.1-.2.2-.2-.1-.5-.2-.7-.3H208.9s-.1 0-.1.1l.1.1c-.4-.1-.8-.3-1.2-.2v-.1c-.2-.3-.4-.6-.7-.8.5-.3.8-1.4 1.5-.9 0 .2 0 .3-.1.6.4 0 .9.3 1.1-.3.2-.4.2-.9-.2-1.2-.6.4-1.1.7-1.6.5.3-.3.6-.6 1.2-.7l-.3-.1c0-.1.1-.3.1-.4-.1 0-.2-.1-.2-.1-.1 0-.2.2-.2.3.1.1.2.1.3.2l-1.6-.8c-.2-.2-.4-.4-.4-.7-.3.2-.7 0-.9.6.3.2.8.1.9.6v.3c0 .2-.1.3-.2.5h.1c0 .2 0 .4-.1.6.2 0 .4 0 .5.1 0 .1.1.3 0 .5h-1.6c.4.6.8 1.4.8 2.1-.1.1-.2.1-.3.2-.2-.4-.4-.7-.6-1.2-.2.4-.4.6-.6.8-.2-.1-.3-.2-.4-.3v-.1h-.1c-.1-.1-.2-.1-.3-.1-.1-.3 0-.7-.2-.9-.5-.4-.9-.6-1.5-.9l.6-.2c.5 0 1-.3 1.5-.6l.1-.1V18c.1-.1.2-.2.3-.4l-3-.5c.1-.9.6-.8 1.1-1.2-.4-.1-.9-.2-1.3-.4-.1 0-.1-.3 0-.5v-.1-.1c.2-.2.5-.3.8-.5.3-.1.5-.5.4-.8-.3-.2-.7-.4-1.1-.4h-.3V13h-.6c0 .1.1.2.2.2l-.1.1-.6-.1c.3.2.5.4.8.4.3.4.4.7.6 1.1v.1c-.5.9-.9 1.7-1.4 2.8l-.4.1c-.5-.1-1 0-1.5-.2-.4-.1-.8-.1-1.1.2h-.8c-.4-.2-.8-.4-1.2-.4-.5-.1-1 .1-1.5.3-.1-.6-.3-1.1-.4-1.8-.2.1-.5.1-.5.2 0 .4-.2.7-.3.9h-.1v.1c-.2.2-.4.3-.7.3-.2-.2-.6-.4-1-.7l1.8-.9-.6-.2-5.5.2c-.8-.2-1.7-.2-2.5-.3l.1-.1c-.2-.4-.3-.6-.5-.8 0-.1-.1-.3-.1-.4-.1.1-.2.1-.3.2-.4-.1-1-.3-1.9-.6.1-.1.2-.3.5-.5-.2 0-.3 0-.5-.1-.6-.1-.8 0-1.4.5-.7-.5-1.2-.9-1.8-1.4l.2-.2c-.2-.1-.5-.2-.7-.2 0 0-.1 0-.1-.1h-.1c.3-.2.5-.3.4-.7-1.4-.7-2.9-.7-4.5-.4l.4.3c-.2.3-.4.6-.6.8h-.6c-.1-.2-.2-.3-.1-.5 0-.4.7-.7-.7-1.1-.1.2-.2.4-.4.5-.2 0-.5-.1-.7 0l.5.5c-.1.3-.4.5-.5.8-.4-.1-.7-.2-1 .1-.8-.1-1.6-.2-2.3.2.1.1.2.2.3.2h-.1c0 .1-.1.2-.1.3-.6-.5-.8-.5-1.3.2v-.2c0-.2-.1-.3-.1-.4.1 0 .1-.1.2-.1h-.3c-.2-.3-.4-.6-.9-.6-.1 0-.3 0-.4.1-.1.1-.2.2-.2.4-.5-.1-.8 0-1.3.2V12c0-.3 0-.5-.1-.7h1l-.2-.2-.8.2-.1-.1c.4-.4.9-.7 1-1.1.3-.7-.4-.7-1.2-.5v1.5c-.1 0-.2-.1-.4-.1-.3 0-.5.2-.5.5 0 .1 0 .2.1.3.2.3.1.5.1.7-.6-.1-1.2-.2-1.7-.3 0-.2 0-.3.1-.5-1.1-.2-2.1-.4-3.1-.5-.1 0-.3-.1-.4 0-.5.6-.9.3-1.4.1-.4-.2-.8-.3-1.1-.1-.5.2-2.1-.1-2.5.1-1 .8-2.4.7-3.2-.1-.5.6-1.1.6-1.7.6 0 0-.1 0-.1-.1l-.1.1c-.3 0-.6 0-.9.1-1.2.4-2.5.1-3.5-.6-.5-.3-1.1-.5-1.6-.7-.6-.2-1.1 0-1.5.4-.1.3-.2.6-.2.8-.2-.1-.3-.1-.5-.3-.7-.4-1.4-.6-2.2-.7h-.2l-.4-.4c0 .1-.1.1-.1.2-.4.1-.7.2-1.1.5 0 0 0 .1-.1.1-.4.1-.9 0-1.3-.2-.3-.1-.6-.2-.9-.2-.3.1-.4.3-.6.3l-1.6-.5c-.3-.3-.3-.8-.4-1.3 0 .2 0 .4-.1.6-.1 0-.3 0-.3-.1-.2-.3-.2-.5-.6-.5v-.1c.2-.7-.8-.4-.7-1.2l1-.6h-.2.1-.1c.6.1 1.2 0 1.8.1-.5-.6-.7-.7-1.8-.7-.1-.4 0-.5-.3-.5s-.5 0-.7.1c.2.1.3.3.5.5-.4.1-1 .1-1.7.1.5.3 1 .4 1.5.5-.4.1-.8.4-1.2 1.2.4.2.7.5 1 .7.2 0 .5.1.7 0-.5.1-1.1.3-1.7.6-.4.4-.9.7-1.3 1.1h-.3c-.1-.3-.2-.7-.4-1-.3-.3-.8-.5-1-.9-.2-.3-.3-.7-.4-1.1l1.2-.3-.3-.9c-.1 0-.2 0-.3.1v-.1c-.1 0-.1.1-.2.1-.2.1-.4.1-.6.1 0-1.1-.6-2.3-1.6-2.9-.6.9-.2 1.6.6 2.2.3.2.7.5.9.7-.3.1-.6.1-.9.1-.1 0-.2.2-.2.3l.3.2.3.2c0 .4-.2.7-.2.9-.6.3-1.3.5-1.5.9-.2-.2-.4-.3-.7-.3l.1-.1c-.7.1-1.4.3-2.2.6-.5.3-1.1.7-1.6 1.1v-.1l-.4.1c-.2-.4-.3-.8-.5-1.2-.3-.3-.8-.5-1.1-.7.9.2 1.9-.4 2.1-1.3.1-.2.2-.5.4-1-1 .4-1.7.7-2.4.9-.3-.1-.5-.3-.8-.3l1.4-.2c-.2-.4-.2-.7-.4-1-.9.1-1.9.2-2.8.3-.1 0-.2.2-.3.3l.8.5c0 .4-.2.8-.2 1-.1 0-.2.1-.2.1h-.4c.2-.7-1.9-.5-1.6-1.4l2.2-.5c-.2 0-.4 0-.6-.2-.1-1.2-.1-1.2-2.5-1.2L113 7c-1.7-.3-3.1-.1-4 1.1 1 .3 1.6.7 2.4.9h.3c-1.1.9-1.2.9-2.1 1 0 .2.1.3 0 .5 0 .4 0 .7-.1.9h-.4c-.9-.1-1.2.4-1.7 1v.1h-.4c-.2-.1-.4-.1-.7-.2-.2-.2-.4-.4-.5-.7-.3.1-.6 0-1 .1.1-.1.2-.3.4-.5.1-.4.1-.7-.2-.7-.1 0-.4.2-.4.3 0 .3 0 .6.1.9-.9.1-1.8.2-3.1.4.1-.1.1-.3.1-.4.7-.1 1.2-.1 1.7-.1-.3-.1-.5-.3-.8-.3s-.4.2-1 .5c.4-.9.4-1.9.1-2.7.7-.4 1.4-1 2.1-1.4-1.8-.6-2.3-.5-2.8.3-.2.4-.3.8.3 1-.2.2-.1.4-.2.7-.1 1.6-.2 1.7-2 1.5-.6-.8-.5-2.2-1.6-2.6-1.7 1-1.7 1-3 1.1 0 .2.1.3 0 .5.1 1.7-.6 2.4-2.1 2.3-1.4-.1-2.8-1-4.2-.3-1.5-.4-2.8.6-4.3.4 0-.1-.1-.2-.1-.4h-.5c-.1 0-.2.1-.3.2h-.1c-.1-.3-.1-.5-.2-.8-.1-.3-.2-.5-.4-.7h2.9c0 .1.1.2.1.3.4-.2.7-.3 1.1-.6.3-.4.2-.7-.6-.9-.3 0-.9.1-.9.3 0 .2.1.4.2.7-1.7-.5-1.8-.4-3.4.1h.1c-.3.1-.6.1-.8.2-.3.1-.7.1-1.4.1.9.5 1.3.8 2.1 1.2l-2.2.7c-.4-.6-.9-1-1.5-1.4-1.8-.9-1.8-.8-3.5.6-.5.5-1.1.8-1.8.9-1-.1-2.2.3-3-.9l-1.7-1c-.1.3-.2.8-.8.6-1-.3-2.1-.2-3.1.4.2.3.4.7.6 1-1.5 1-2.2-1-3.4-1.1-.1-.3-.1-.6-.2-1-.2 0-.5-.1-.7 0-.3.1-.6.3-.9.3-.7-.2-.9 0-1 .8 0 .3-.6.4-.7.7-.1.1.2.4.2.7-1.8.9-1.8.9-3.3.1.5-.2.9-.4 1.5-.7-.6-.6-1.1-1.1-1.6-1.3-1-.3-2-.3-3 0-.8.4-1.9.4-2.7 0-1.1-.5-1.8 1.2-2.9.5-2 0-4.1-.4-6.1.8.4.8.7 1.7 1 2.4-.6.5-.9 1.2-1.6 1.4-.7.2-1.5.3-2.2.3-1.5.1-3 .3-4.6.4-.3.5-.5.9-.7 1.3-2.1 0-4.1.9-5.5 2.5-.4.4-1 .7-1.6.7-1.9.8-3.7 1-5.6 1-.7 0-1.4-.1-1.9.7.8.5 1.4 1 1.9 1.6.5.9 1 1.7 1.4 2.6.4-.1.7-.1 1.1-.1 1.3.1 1.5.4 1.6 1.6 0 .2.1.4 0 .5H23v.2l-1 .1-.4.1v.1l-.8.2v-.1l-1.8.4c.1.3 0 .5.1.9-.1 0-.2-.1-.2-.1-.1-.3-.2-.5-.6-.6-.2 0-.4 0-.5-.1-.8.2-1.8.4-2.6.6-1.6.4-3 .9-4.6 1.3-1.8.5-3.6 1-5.4 1.6-1.3-.2-2.3 1-2.5 2.3-.1.5-.1.9-.1 1.4-.1.8-.2 1.5.3 2 0 1.2-.1 2.1-.1 3.1 0 .4-.1.8-.1 1.1 0 .2 0 .3-.1.5 0 .2 0 .4-.1.6-.2 1-.3 2.1-.3 3.1 0 2.6-.2 5.3-.3 8-.1 1.7-.1 3.3-.1 5 .1 1.6.2 2.9.2 4.3V78c0 .8.5 1.6 1.2 1.4.2-.1.5 0 .7-.1v.2l-1.1.5c1.1 0 2.2-.2 3.2-.5.1 0 .1 0 .2-.1h.1c.3 0 .7.2.9.4 0 .6.1 1.2.1 1.8-.1.5-.1.9-.2 1.4-.2.6-.2 1-.1 1.4 0 .9-.4 1.7 0 2.4-.1 1.9-.1 3.8 0 5.7v2.9c0 .4-.2.9-.1 1.3 0 1.8.1 3.7.1 5.5 0 .8-.1 1.5-.1 2.3 0 1.3-.1 2.7.1 4 0 1.4.1 2.7.3 4.2.1.4 0 .9.1 1.3 0 .2.2.3.1.5 0 .9 0 1.8.1 2.8 0 .6.3 1.1.7 1.3.3.1.7.3.9 0 0 0 .1 0 .1.1.4.1 1 .4 1.2-.4.1-.1.3-.2.5-.1.4.4.9.2 1.3.1.5.4.9.1 1.4.1.6 0 .7-.2.8-1.1-.2-.1-.4-.3-.6-.7 1-.1 1.7-.2 2.4-.2v-.3c-1.1-.1-2.1-.5-3.2-.4-.7-.1-1.5-.2-2.2.1.1.3.2.4.1.6v.3l-.7-.2c-.1-.4.1-.8.5-1 .2-.2.5-.2.8-.2s.7-.1.9-.5c.2-.2.4-.4.7-.5 0 .1.5.1.5 0s.1-.2.1-.3c.3-.1.6-.1.8.4 0 .1.5.1.5 0 .3.1.4-.2.5-.5.3-.2.6-.1.9-.1l.1.1c0 .2-.1.3-.2.5.6.3.7-.1.7-.8h.3c.1.1.2.2.2.3.4-.2.7-.3 1.1-.4.2 0 .5.2.6.6.5-.1.9-.3 1.4-.5v-.1c.3 0 .5.1.8 0 .2.1.3.1.5.2h.1c.7.1 1.5.1 2.2 0 .3-.1.7-.2 1-.3h.1l.1-.1c.4-.2.9-.2 1.4.1.1 0 .1 0 .2-.1s.1-.1.2-.1c.2.1.3.2.5.4.1-.2.3-.4.6-.4.3-.2.7-.2 1-.3.1 0 .2.3.3.4.5-.1 1-.4 1.4-.3h.4c.5.1 1.1 0 1.6-.1.4-.2.7-.1 1 .1 0 .2-.1.4-.2.5.4.3.5.2.6-.2 0-.1.1-.1.1-.2l1.5-.3v.1l.6.8s.1-.1.2-.1c0 .1 0 .2-.1.2.4.3.5.2.7-.2 0-.1.1-.3.1-.4.5 0 1.1-.2 1.6-.2v.2l.7.8c.2-.2.5-.3.7-.4.1 0 .2 0 .3-.1l.8.6c-.1.2-.2.4-.4.6-.1.2-.3.5-.3.7h-.5v.2l.5.5c.1.1.3-.1.5 0 .3 0 .6.2.9.3 0 .1.1.3 0 .5.1-.1.2-.3.2-.4h.1c.4.1.2.7.3 1 .1.1.2.3.3.4l-.6.7c.2.5.5.9.6 1.2-.1.5-.2.9-.3 1.4.7.4 1.5.1 2.1.8-1 .1-1.7 1-1.6 2l1.5 1.3c-.3.6-.4 1.1-.5 1.3.2.7.4 1.2.6 1.9.1.3.2.6.3.8 0 .1.2 0 .2 0-.1-.2-.2-.4-.2-.6.6-.1.8 1 1.4.7v-.7c.3 0 .6.1.9.2-.1.8.5.5.7.7.5.6 1.3.3 1.8.5.1-.1.1-.3.1-.4.2.1.4.2.6.2 0-.2-.1-.4 0-.7l1 .2c-.1.8.6.5.7.7.4.2.9.4 1.3.4.2 0 .4 0 .7.1.7-.8-.2-.9-.1-1.4 1.3-.4 1.3-.4 2.7.8.3.2.6.3.8 0v-.1c0-.1-.1-.1-.1-.2.3 0 .6.1.9-.2.3-.2.6-.2.9-.3.7.1 1.4-.3 2.2-.4.2 0 .4-.5.6-.8.8-.2.4 1 1.1 1.4l-1.6.2v.3c.7.3 1.2.7 2 .2.4-.2.8-.3 1.2-.3.3-.1.7-.1 1-.2-.2-.3-.2-.5-.3-.6l-1-.1c0-.7.4-1.3 1.1-1.4.2-.1.5-.1.8 0h.4c0 .2 0 .4-.1.7-.3-.1-.6-.3-.9-.5-.2.4-.4.8-.5 1.1l.5.1c0 .1 0 .2-.1.3l1.2.1v-.3l1.1.1c0-.3.2-.6.2-.9-.4.1-.8.1-1.3.1-.1 0-.2-.1-.2-.1.2-.2.5-.3.5-.3-.1-.4-.1-.8-.3-1.1l.7-.4c-.3-.1-.5-.2-.8-.1-.4.1-.8-.1-1.1-.3l.8-.2-.3-.5s0-.1.1-.1c.5.1.9.1 1.3.1.3.1.7.2 1.1.3-.1.3-.3.5-.4.9.8.1 1.4.1 2.2.1v.2c-.8-.3-1.6-.3-2.4-.1l2.4.2c0 .4-.1.8-.1 1.1 0 .2.1.4.2.5.1.1.3-.1.4-.2.2-.2.5-.5.7-.6-.2-.3-.3-.7-.6-1.2l1.3-.3-.6-.8c.4-.1.7 0 1.1-.1.1 0 .2.1.2.1.4.7.9.8 1.5 1.3.3.2.3.6.2.9-.4 0-.5-.8-1-.2.3.4.5.8.9.6.2-.1.4-.3.7-.4l2 .1c-.6-.5-1-.5-1.6-.4.2-.1.4-.4.5-.2.4.3.6.2.8-.1.1.1.2.3.3.3h.4c0 .1 0 .3-.2.5v.2c-1.2-.1-1.3.1-1.7.9.3-.1.7 0 1 0 0 .1-.1.3-.2.5.7-.2 1.5.1 2.1-.5.7 0 1.3-.1 1.8-.3.1 0 .2 0 .3-.1.4-.2.7-.4 1.2-.7.2-.1.5-.3.6-.2.5.5.9.1 1.2-.4.4.3.6.6.2 1.1v.3c0-.1-.1-.1-.1-.2l-2.3-.1c.3.2.5.4.7.5h-.2c.2.3.3.5.5.9.1-.2.2-.3.3-.4.4-.2.7-.4 1.2-.6 0 .1.1.2.2.2s.2.1.2 0c.1-.7.2-1.3.3-1.9.2.1.5.3.6.5.1-.2.1-.3.3-.5.7.2 1.3.3 2.3.5-.9-.9-.9-.9-2.2-.6.1-.2.1-.4.3-.7-.6 0-1.2.1-1.8 0-.5-.1-1 .2-1.5-.2v-.1l.9-.3v-.2c.1.1.2.2.4.1.9 0 1.8-.2 2.5-.3-.2-.1-.3-.3-.5-.5h2.9c-.1.2-.1.4-.3.6.1.6 0 1.4.5 1.9s.9.2 1.4.1c-.4-.2-1 .1-1.2-.8l1-.3c0-.6-.1-1.3-.7-1.6.3-.2.5-.3.8-.4l.1-1.5c.3-.1.6 0 .9-.1-.2.1-.3.2-.4.4 0 0 .2.2.4.2.2-.1.4-.3.6-.3-.1-.1-.3-.1-.5-.3.4-.1.8 0 1.2-.1-.1.4-.3.7-.4 1 .2.1.5.3.6.2.6-.4 1.3-.7 1.4-1.8h.7c.2.3.3.6.1 1l-.5-.5-.1.2c.1.1.2.4.4.4l.9.3-1.6.2c.5.3.7.6 1 .8l-.6.2c-.3-.4-.3-.6-.5-1l-1.7.7 2.2.2c.4.3.3 1 .9.9v-.9c.2.1.5.2.9.1-.1-.4-.1-.8-.2-1.2.4.1.9 0 1.2-.4-.3-.1-.6-.2-.8-.3.1-.2.3-.3.5-.2 1.2-.1 2.5 0 3.7-.1h1.1v-.2h-.7l.2-.2c0-.1 0-.2-.1-.3l-3.1-.5c.1 0 .1-.1.2-.1 0-.1-.1-.1-.1-.2.7-.1 1.3-.3 2.1-.4v-1c-.2 0-.5-.1-.7-.1.2-.1.4-.2.7-.4.1-.2.4-.1.7-.1v1.2c.2 0 .4 0 .5.1.1.3 0 .7.1 1 .2-.3.6-.4.7-.7.3.1.6.5.7 1 .2 0 .3-.1.5 0v.2l-1.4-.1-.4 1.2c.8.1 1.5 0 2.2-.3.2-.1.5-.2.7-.1.6.5 1 0 1.7-.2-.2-.3-.3-.5-.5-.9 0-.2 0-.4.1-.6.2.1.5.4.7.5-.1.2-.2.4-.4.7l1.9-.3.2.1h-.6v.3c.1.1.3.2.4.3.3.1.6.3.9.3.1 0 .3-.3.5-.5l-.2-.2c.2-.2.4-.4.7-.5.1 0 .1 0 .2-.1.5.2 1 .4 1.3 1.1.6 0 1.1-.1 1.6-.1s1 .1 1.5.1c0-.3.1-.5.1-.7.1.1.1.2.2.3.1-.1.2-.1.4-.2.4.2.8.4 1.3.1l.2.1 1.3.7 1.2-.9.1.1c.1 0 .2-.1.3-.1 0 .4-.2.8-.2 1.2 0 0-.1 0-.1.1v.1c-1 0-1.2 1.4-1.7 2.3l1.3.3c-.3.3-1.2.2-1.9.2.7.2 1.2.4 1.7.7-.1.4-.5.2-.9.4.5.2.8.9 1.5.4-.1-.2-.1-.4-.1-.6h.3v.2c.2-.2.4-.3.6-.3.1 0 .2-.1.3-.1 0 0 0-.1-.1-.1v-.1c.6 0 1.2-.1 1.7-.1v-.1c.1 0 .3-.1.4-.1-.2-.6-.6-.5-.9-.4.1 0 .2-.1.4-.2v-.2l-.3-.1c.9.1 1.7.1 2.6 0-.5-.6-1.3-.7-2.1-.5-.4.1-.8.1-1.3 0-.2-.4.4-.8.3-1.2-.5-.2-1-.1-1.2-.4l.1-2.3c.1.1.2.1.3.2.1 0 .2 0 .3-.1v1c.5-.2.7-.4 1-.4.1.2.3.3.4.4.4.2.5 0 .7-.4.2-.1.3-.3.5-.6.2.3.3.6.4.9.2.3.2.6.3.7.4-.2.7-.3 1-.4.1-.1.2-.1.3-.2.1 0 .2.1.3.1.2-.2.4-.3.6-.4 0-.1-.3-.2-.5-.5l-.2-.3c.2-.1.4-.3.7-.3-.4-.6-.8-.3-1.2 0-.2.2-.5.3-.7.2-.3-.5-.5-.7-.8-.6.2-.2.4-.2.6 0 .4.1.8.1 1.2 0 .6-.1 1.2.2 1.3.7.2.3.3.6.6.9.1.1.2.1.4.1-.1-.4-.1-.8-.2-1.2.2.1.5.2.8.3l-.4.4 1.5.7c-.2.7-.2 1.3-.4 1.9-1.1-.1-1.2 1.2-1.7 2.1-.3 0-.7 0-1 .1-.1-.1-.2-.1-.3-.1-.1 0-.2.1-.4.2.1 0 .1.1.1.1-.2 0-.3.1-.5 0 1.1.4 2.2.5 3.2.3.3 0 .5.2.8.2 0 .3-.2.6-.2 1.1.4-.3.8-.3 1-.5.3-.5.8-.8 1.4-.8.2 0 .3-.1.5-.1v-.2c-.3-.1-.7-.3-.8-.3-.7-.6.1-1 0-1.6-.5-.2-1.1-.1-1.3-.4l.1-2.7.5-.1c0 .6.1 1.1.1 1.6.7-.4 1.4-.6 2-.3.4 0 .6-.2.8-.6v-.1c.1 0 .2 0 .3-.1.3-.2.6-.3 1.1-.5.3 0 .7.1 1 0 .6-.1 1.2.2 1.4.8.2.3.4.7.6.9.1.1.2.1.4.1-.1-.6-.2-1.1-.2-1.7.4-.2 1 0 1.2.4v.1c.2.4.4.8.9.7.2-.4.2-.9-.1-.9-.6-.2-.4-.8-.8-1.3l1 .5c.2-.3.5-.8.7-.8.7-.1 1.3.6 1.5 1.8l-.9-.1c.1.2.3.3.5.5l-.5.1c.2.2.5.5.8.5.6.1 1.2 0 1.8 0 .2 0 .4-.1.6-.1.4-.2.9-.4 1.4-.6.3-.1.4-.3.4-.9-.9.5-1.7 1.6-2.6.4.2-.3.5-.7.6-.9.2-.7.6-.6.8-.3.4.3.6.2.9.1.3-.1.6-.1.9-.2h.2c-.1.1-.1.2-.2.3 1-.3 1.8-.4 2.5-.6-.2 0-.4-.1-.6-.2.1-.1.2-.3.4-.5 0-.1.3 0 .6.1-.1.3-.3.5-.5.8.4.2.8.5 1.2.7.2-.3.6-.5.6-.8.2-.6-.5-.5-.6-.8V118l1.4.6c.3-.4.9-.7 1.4-1.2 0 .3-.1.6-.1.8-.3.1-.5.3-.7.9.2-.1.4 0 .5 0 .2-.2.4-.4.7-.5.1 0 .2 0 .3-.1.3-.2.7-.2 1-.2l-1.1 1.1h-.1c-.5-.2-.8.1-1.3.7.6.6 1.2 1.1 1.8 1.7.2-.2.4-.6.6-.5.1-.1.3-.1.4-.1.2.5.5 1.2 1.1 1.2 0-.2 0-.4.2-.6l.7-.1c-.2-.1-.3-.2-.5-.5 0 0 0-.1-.1-.1.6.1 1.1 0 1.6-.3 0 .1.3.2.4.2.2-.1.3-.1.5-.1 0 0 0 .1.1.1l.4.4c.6-.2 1.3-.5 1.9-.7.1-.7 0-1.4-.4-2 .3-.4.8-.4 1.2-.2h.1l-.1.1c.5.8.5.8 1.1.1.6-.6 1.2-1.1 2-.9-.3 0-.6 0-.9.2l1.3.4c-.1.2-.1.4-.3.7.1.2.1.5.2.8-.1.1-.2.1-.4.1s-.4.2-.6.3h-.7l.6.4c0 .1 0 .2-.1.3.2 0 .3-.1.4-.1l1.9 1.1c-.3-.4-.5-.7-.7-1h.6c.5.5.8.9 1.2 1.4.3.5.5 1.2 1.2 1.2 0-.2 0-.4.2-.6.2-.1.5 0 .8-.1-.2-.1-.4-.2-.5-.5s-.3-.4-.3-.6c-.7.4-1.1.3-1.3-.4-.1-.5.1-.8.5-.7.3 0 .6.3 1 .4.5.2 1.1.2 1.6.1l1.5.2v-.4c-.3 0-.5-.2-.8-.2.1-.1.1-.2.2-.3l.3-.3c.2 0 .4.1.6.3.2-.7.6-.7 1.1-.7.6.1 1.1 0 1.6-.1.3-.2.6-.2.9-.2l-.7.4c.5.8.5.8 1.1.1.1-.2.3-.4.5-.6.1 0 .3 0 .3-.1l.3-.3c.4-.2.8-.1 1.2 0 .1 0 .1.1.2.2-.1.3-.3.6-.4 1 .2.5.2 1.3.8 1.3.5.1.8-.2.9-1.2.3.5.5.9.9 1.2l.9-.6c.2-.1.3-.2.5-.1.4-.1.7 0 1.2 0 .1.1.5.5.7.5.6.1 1.1.2 1.6.5.2-.7.7-.7 1.1-.7.6.1 1.2 0 1.7-.1.5-.2 1.1-.3 1.6-.2.2 0 .5.1.6 0 .6-.4 1.2-.7 1.9-.7.4-.1.7-.3.9-.7l-.7-.4 1.1-.8c.2-.6.4-1.2.6-1.6 0-.2 0-.5-.2-.6-.1-.1-.3-.2-.4-.2.3-.5.4-.9.6-1.3 0-.1.1-.1.2 0 .2 0 .4.1.5-.3l-1.6-1.1c0-.3.2-.6.2-.8l-.7-.5c.6.1.8-.8 1.2-1 .3-.1.4-.3.5-.5.1.6.9.7 1.8.6-.1-.1-.2-.1-.4-.2-.2-.2-.4-.4-.5-.7-.1.1-.1.2-.2.2-.2-.1-.3-.2-.5-.3l-.4.3c0-.3 0-.7.1-1l.9-.2-1-.6c.5-.6 1-.2 1.4-.3.3-.1.6 0 .9.2.2.1.5.3.7.3 0 0 .2.3.1.5-.1.8.2 1 .7 1.1.2 0 .4.3.5.5h.2c0-.3.1-.6.1-.8.6-.2.8.4 1 .8.2-.3.5-.5.8-.6-.1-.3-.1-.6-.3-1-.2.5-.7.7-1.2.6h-.6c-.3.1-.6.1-.9-.3.6-1 1.4-.6 2.1-.7l-1.3-.3v-.1h.7c.7.4 1.4.3 2.2-.3l-.6-.6c-.3-.3-.7-.4-1.2-.4-.3 0-.5-.1-.8-.1v-.3c.5-.2 1-.5 1.5-.6.2-.1.5 0 .7.1s.4.2.6.4c.7.3.7.6.3 1.2-.3.4-.4.9-.1 1.2.1.3.1.6.2.9h1.9c.1-.9.1-.9 1-1.4-.6-.5-1.2 0-1.7 0l-.6-1.3c.4-.1.8.1 1.2.2.4.2.8.3 1.2.2-.6-.5-.4-1.2-.5-2 .3-.3.4-.1.5.2.1.1.1.3.3.3.3-.2.7-.4 1-.6.2-.3.5-.3.8-.1.6.4 1.3.4 1.9.2.5-.2 1.1-.6 1.5-.9.8-.6.9-.6 1.5.1.4.6.7.5 1.2 0 .2-.3.6-.4.9-.6-.2-.4-.3-.7-.5-1.2-.6.8-1.6 1.1-2.6.7l1-.7-1.6-.2c.1-.3.2-.4.4-.8l-1.7.8c-.5-.9.6-1.1.3-1.9.5-.2 1.1-.5 1.5-.4.5.1.8 0 1.2-.5.2 0 .3 0 .4.1l.2.3c.1 0 .1-.1.2-.1.2.1.5.3.7.5-.3.3-.6.5-1 .9l2.6-.3v.9l2-.7c2 .9 2.9.9 4.8.1.3-.2.7-.2 1-.2 1.6-.1 3.3.2 4.9-.1v.6c.1.1.2.2.3.2.1-.1.2-.2.2-.3v-.6c.4-.1.7-.1 1.1-.3.1 0 .3-.1.4-.1 1.1-.1 2.1-.2 3.6-.3-1.2-1 .6-.8.8-1.4-.3 0-.5-.1-.7-.2-.1-.5-.2-.7-.5-.8h-.5c-.1-.2-.2-.4-.1-.7l.7-.2c.1.1.3.2.5.3.5.2 1 .1 1.5 0s1.1-.3 1.7-.2c.5 0 .7.2.5.9 0 .4-.1.8-.2 1.3l.9.5-.3.9c.3-.1.7-.1 1-.2.4 0 .5.5.3.8-.3.2-.6.3-1 .5.4-.1.6.3.8.7-.1.3-.3.5-.5.9l1.2-.4v.8c.3-.3.7-.5.9-.7.8.7 1.2.6 2.1-.2.1-.1.3-.3.4-.3 1-.3 2 .1 3-.7 0 0 .1 0 .2-.1.5-.1.9-.3 1.6-.4-.5-.9.3-.9.4-1.4.1-.1-.1-.6 0-1.4zm-6.6-8.2c.2-.3.5-.2.8.3h-.8v-.3zm-14.1-8.8h-1.1c.4-.7.7-.5 1.1 0zm-.3-4.5c.1.2.2.3.3.3-.1.1-.1.2-.2.2s-.2-.1-.2-.2c0 0 .1-.2.1-.3zm-3.7 4.2c-.1.2-.2.3-.3.5l-.2-.4.3-.3c.1 0 .2.2.2.2zm.1-3.8h-.4v-.2c.1 0 .2-.1.4-.1v.3zm-.9 1.1c.1.1.3.2.4.3-.1.2-.2.3-.2.3l-.3-.3c-.2-.1 0-.4.1-.3zm19.2-12.3c-.1 0-.2-.1-.3-.1 0-.1.1-.2.1-.2.1 0 .2 0 .4.1l-.2.2zm2 .2v-.2l.5-.3c-.6-.5-1.1-.9-1.7-1.4.4-.6.7-1.1 1.1-1.7.1 0 .2.1.4.1.9.6.9.6.7 2.1-.1.5 0 .9 0 1.4-.3.1-.7.1-1 0zm1.7-2.8v-.2c.2-.1.3-.1.5-.1v.3h-.5zm1.1 1.7c-.1 0-.1-.1-.2-.1 0-.2.1-.4.3-.6l.3.1-.4.6zm.7-3.1l.4 1.1-.4.4c-.2.2-.3.3-.4.3-.1 0-.2-.2-.3-.6-.1-.3-.1-.6-.2-.8.1-.2.4-.3.9-.4zm-2.4-2.1c.2.4.2.8.3 1.2.5 0 .8-1 1.2-.2-.2.4-.5.8-.7 1-.3.6-.6.8-1 .3-.4.1-.7-.3-1-.5s-.4-.6-.8-.6c0-.2-.1-.3 0-.5.3 0 .6.3.8.3.2 0 .3-.1.5-.3.3-.5.2-1.1-.1-1.4.7-.2.6.4.8.7zm-1-3.1v.6c.2 0 .5.1.8.1 0 .2.1.4-.1.5-.2.4-.6.4-.7.4-.3 0-.6-.2-1-.3v-1l1-.3zm-1.4 3c.2 0 .3 0 .5.2 0 .1-.1.4-.1.4-.1 0-.3-.1-.4-.2-.1-.2 0-.3 0-.4zm-1 4.1c-.5-.3-.4-.8-.3-1.5.5-.2 1.1-.5 1.6-.8 0 .3-.1.5-.1.5-.5.6-.7 1.1-.7 1.8 0 .2-.1.5-.2.7-.5.6-.8 1.1-1.4 1.8-.3-1.6 1-1.6 1.1-2.5zm-1.7-2.1c.3 1-.3 1-.7 1.4 0-.5.3-1 .7-1.4zm0 3.3c0 .3 0 .6-.1.7-.1.1-.3.2-.5.1-.3 0-.5-.2-.8-.4.6-.2 1-.2 1.4-.4zm-1.6 1.4c.6.3.3.8.4 1.5-.4-.6-.8-.9-.4-1.5zm-3.1 3.6c-.1-.5-.2-.9.2-1 .2-.1.6.2.6.4-.1.6-.5.6-.8.6zm2.3-4.1c0 .1.1.2.1.3-.2.1-.3.2-.5.3 0-.1-.1-.1-.1-.2.1-.2.3-.4.5-.4zm-.6 3.2s.2.1.3.3c-.2.2-.2.3-.4.3-.1 0-.2-.2-.2-.3l.3-.3zm-2.2-9.2c.1-.2.2-.4.3-.7.3-1 .9-1.3 1.8-.8-.4.4-.8.7-1.1 1.1-.4.6-.6 1.1-1 1.7-.2-.6-.5-.9 0-1.3zm.5 4.6l-.4.4c0-.7 0-.7.5-.7-.1.2-.1.3-.1.3zm-1.2.5c.3.1.6.3.9.3.3 0 .6 0 .8-.2-.1.1-.1.2-.2.4h.3c-.1.4-.3.6-.4.9-.8.3-1.2-.8-1.9-.9v-.3c.1-.2.4-.3.5-.2zm-1.9-.8h.5v.3c-.1.1-.3.2-.4.3-.1-.3-.1-.5-.1-.6zm-6.3-22.4c0 .2-.1.4-.2.6h-.2l.1-.6h.3zm-.6-2l.2.2-.2.2c0-.1-.1-.2-.1-.3l.1-.1zm.4-8.6l.1.1-.1.1-.1-.1s0-.1.1-.1zm-31.9 86.3c.1 0 .1.1.2.1 0 .1.1.1.1.2h-.2c-.1 0-.1-.1-.2-.2 0 0 0-.1.1-.1zm-43.2 0c.1.1.1.1 0 0 .1.1.1.1 0 0 .1.1.1.1 0 0zm-1.6-1.4c.2-.1.5 0 .8.2-.3-.2-.5-.2-.8-.2zm-10.1-.7h-.5c-.1-.1-.2-.1-.4-.2.1-.1.2-.1.4-.2.2 0 .4.3.5.4zm-.3 1.1h-.2c.1 0 .1-.1.2 0zm-16.4 2.6c.2.3 0 .7-.3.8-.2 0-.5-.1-.7-.1 0-.1 0-.2-.1-.3 0-.1 0-.2.1-.2l1-.2zm-13.5-1.6c-.3 0-.5-.1-.8 0l.2.6c-.2.1-.4.3-.6.3-.1.1-.3.2-.4.3.1-.4.4-.7.5-1.1l-.2-.1c-.1.2-.2.3-.4.5-.1-.1-.1-.1-.2-.1l-.1.1c0 .1 0 .2.1.2h.1c-.1.2-.2.4-.4.7-.1 0-.2-.2-.3-.4 0-.1-.2-.3-.3-.4-.1-.3-.1-.6-.4-.9.1-.1.2-.1.3-.2.3-.3.5-.6.5-1l.1.1c.1.2.1.5.2.7.1.2.3.4.5.5.1 0 .2-.4.4-.6.1-.2.2-.5.3-.7h.5l.2.2v-.2c.4-.1.9.1 1.2.3.1.1.1.1.2.1.2.3.4.6.7.6h.1c.2.1.4.1.6 0h.9c.1.1.2.1.3.2s.2.3.2.4c0 .1-.1.2-.1.3-.4 0-.8-.2-1.2-.2-1.1-.3-1.9-.2-2.7-.2zM96.1 121c.1 0 .1 0 0 0zm-.2-.5h-.4c-.2 0-.3 0-.5-.1-.1-.3-.1-.6-.2-1-.3-.1-.7-.2-1.2-.3l1.2-1.1c.1 0 .2 0 .2.1 0 0-.1 0-.1.1l.1.1.6.3c.7.4 1.4.4 2.1.1.3-.1.4-.1.5.1-.3-.1-.7-.1-.9.2-.3.4-.6.2-.9-.1l-.1 1.7c-.1-.1-.3-.1-.4-.1zm-4.6.2c0-.1 0-.3.1-.3.3-.1.6-.1.8-.2 0 .1.1.3.1.4l.9.3c0 .1.1.1.1.2l-2-.4zm-3 1.6c-.1-.2-.1-.3-.1-.4h.1c.1.1 0 .3 0 .4zm-7.8 3.6c-.1 0-.1 0-.2-.1v-.1c.1-.1.2-.1.3-.2 0 .1 0 .2.1.2-.1.2-.1.2-.2.2zm-2.8-2.5c-.4.1-.8-.4-1.2-.6 0 0 0-.1.1-.1s.1-.1.2-.1c.3-.1.7 0 1 0 .2 0 .3 0 .4-.1.2 0 .4-.2.8-.6.2.1.5.4.7.5-.1.1-.1.3-.2.5l.4-.3h.1c-.7.4-1.4.7-2.3.8zm1.5.6l-.2.2c-.1 0-.1-.2-.2-.2.1 0 .1-.1.2-.1s.1 0 .2.1zm-9.4-.4c.1 0 .2-.1.4-.1-.2.1-.3.1-.4.1zm-1.1-.3l-1 .1c.2-.3.4-.5.5-.7l-1.5-.2c.4-.6.7-.4.9-.8v-.1c.2.3.3.6.6 1 .1-.2.2-.4.3-.7v-.2c.5.4.9.8 1.4 1.4l-.8.1c-.3 0-.4 0-.4.1zm-30.9-10.8c0-.2.1-.3.3-.5-.2.3-.2.4-.3.5zm137.9-99.1c.1.2.1.3 0 .5-.1 0-.2-.3-.2-.5h.2zm1.7.1c.1 0 .2-.1.3-.2.1 0 .2 0 .3.1 0 .3 0 .6-.1.9h-.2c0-.1-.1-.1-.1-.2h-.1c-.2-.2-.6-.4-1.3-.6.4 0 .8.1 1.2 0zm4.4 3.7v.4c-.2 0-.5-.2-.7-.2.1-.1.2-.1.3-.2.1.1.2 0 .4 0zm11.5 2.4c.1 0 .1.1.2.2 0 .1 0 .2-.1.2 0 0-.1.1-.2.1l-.1-.1v-.1h-.1l-.2-.2s0-.1-.1-.2c.3-.2.4-.1.6.1zm39 45.2c-.1 0-.2-.1-.2-.2.1-.1.1-.2.2-.3 0 0 .1.1.3.2-.1.1-.2.3-.3.3zm-13.9 11.9c-.2-.1-.4 0-.6 0-.1.1-.3.1-.4.1-.1 0-.3-.1-.4-.3l.5-.8c.4.1.7.3 1.1.5.3.2.6.3.9.2.1.5.3 1 .5 1.7-.6.1-1.2.4-1.9.7-.1 0-.1.1-.1.1-.3-.2-.8-.3-1.5-.3h-.1l.1-.1c-.4-.2-.7-.5-1-.8v-.3l-.7-.2c.5-.3.6-.2 1.2.5.1.2.4.3.7.3l.1-.1c.3-.3.9-.7 1.6-1.2zm-3.6 19c-.3 0-.4-.3-.2-.8 1.8-.2 3.6.1 5.6 0-.6.9-2 .6-2.7.9-.9-.4-1.8 0-2.7-.1zm-31.7 13.5c-.1 0-.2-.2-.2-.2.1-.1.1-.3.2-.3s.2.1.3.2c-.1.1-.2.3-.3.3zm-51.7 7.1l.8-.1s0 .1.1.1c0 .2 0 .4-.1.5-.1-.4-.5-.4-.8-.5zm-10 .9c-.1 0-.2-.2-.2-.3l.3-.3c.1 0 .2.1.4.2-.2.2-.3.3-.5.4zm-22.9-.9c-.1.2-.3.5-.5.7 0 0-.2-.1-.2-.2 0-.4.2-.7.5-.7.2 0 .1.1.2.2zm-.8 1.6h-.2c-.4 0-.8-.3-1.1-.5.6-.2 1.4-.1 2 .2-.3.1-.6.1-.9.2.1 0 .2.1.2.1zm-14.8 5.5c0 .2-.1.3-.2.5 0-.3.1-.4.2-.5zm.1-2.1l.4-.2v.3h-.3l-.1-.1zm-52.3-10.2c-.1 0-.2.1-.3.1-.2-.2-.5-.4-.6-.6v-.1c.3-.1.6 0 .8-.1h.2c.1 0 .3.3.3.4-.1.1-.2.3-.4.3zm-1.6-.4c0 .1-.1.2-.1.3l-.2-.2.2-.2c0-.1.1 0 .1.1zm-1-2.2c-.2.5-.3.6-.4.4-.1-.3.1-.3.4-.4zm156-90.8c0 .1 0 .1 0 0 .1.2 0 .2 0 .3l-.1.1c-.1-.1-.1-.2-.2-.4l.1-.1c0-.1.1-.1.2.1zm37 12.7l.4-.1c.3.1.6.4.6.7 0 .2 0 .4-.2.5-.1.1-.2.1-.2.1-.1 0-.1 0-.1-.1-.1-.4-.3-.7-.5-1.1-.1.1-.1.1 0 0zm2.3-.4c.1-.1.2-.2.3-.2.1 0 .2.2.3.3l-.3.6c-.1.4-.4.7-.5 1.1l-.2-.1c.1-.5.1-1 .3-1.5v-.1l.1-.1zm-1.2 13.5l.1 1.4c-.8.6-2 .6-2.7-.1.2 0 .3 0 .5.1h.2c.5.2.9 0 1.2-.4-.1-.6-.9-.2-.7-1.2.3 0 .5.1.7.1.3 0 .5.1.7.1zm-1.1 9c0-.1.1-.2.2-.3l.4.4c-.1.1-.2.3-.3.3-.2-.2-.3-.3-.3-.4zm-98 58.8zM113 115c-.1-.1-.3-.2-.5-.3v-.1c.2-.1.4-.3.6-.3.4-.1.8-.1 1.2 0h.1l-.6.8c-.1-.2-.4-.3-.8-.1zm-5.8-.1s0-.1 0 0c.1-.1.3-.2.4-.2v.2h-.4zm-21.4 6.4zm18.7-7c-.2.1-.3 0-.3-.3.1-.1.2-.1.3.3zm5.1.7v-.3c.1 0 .2.1.2.1 0 .2-.1.3-.2.2zm4.5-1.4zm71.8-93.2l-.1-.1.1.1zm8.4 2.3l-.3.2c0-.1 0-.1-.1-.2l.1-.1.3.1zm16.6 4.6c.1 0 .1 0 0 0 .1 0 .1 0 .1.1s-.1.2-.1.3v-.4h-.2.2zm6.8 7.9l.2.2h-.2s-.1-.2 0-.2c0 .1 0 0 0 0zm2.2 3.5c.1 0 .1-.1.2 0 .2.1.4.2.6.4 0 .2 0 .4-.1.7 0 .2 0 .3-.1.5-.8-.6-.9-.8-.6-1.6zm-1.5 16.6c-.3 0-.5-.4-.7-.9l1.6.2c-.3.4-.6.7-.9.7zm1.5.7c-.1.4-.3.5-.5.5s-.3-.1-.4-.2c.4-.1.6-.1.9-.3zm-10.1-4.5c.3-.1.6 0 .8-.1.1 0 .2.1.4.2-.1.2-.2.5-.3.5-.2.1-.4.1-.6 0 0 0 .1 0 .1-.1-.1-.1-.2-.3-.4-.5zm3.8 1.1c-.1-.2-.1-.4-.1-.6.2-.1.4-.1.7.3-.3.2-.5.2-.6.3zm-1.4-3.1h-.9c.1.3.2.4.2.7l-.7.1c-.1-.4-.1-.8-.1-1.2v-.2c.2 0 .3 0 .5.1.2 0 .3-.1.4-.1.2.1.3.2.5.4.1.1.1.2.1.2zm3.6-1.6s.1-.1.2-.1c-.1 0-.1.1-.2.1zm.5.7l1 .6c-.2.2-.3.3-.5.2-.3 0-.4-.5-.5-.8zm1.2-3.6c-.1 0-.1-.1-.1-.1v-.2c.1 0 .1.1.2.1 0 .1-.1.2-.1.2zm.3-5.5l-.9-1.1v-.3c.3-.1.7 0 1.2-.1-.1.5-.2.9-.3 1.5zm-.8.2c0 .1-.1.1-.1.2-.1-.2-.3-.4-.3-.6.1-.1.1-.2.2-.2l.2.6zm-5.7-7.7v-.4c.1.2.2.3.3.4h-.3zm3.5 49.2h-.2l-.1-.1c.1-.1.2-.2.3-.2.1 0 .2.1.4.1l-.4.2zm3.9-29.2c.3-.1.5 0 .8-.1 0 .1 0 .2.1.3-.3.1-.5.1-.8.3-.1-.2-.1-.4-.1-.5zm-1-.1v.3c-.4.1-.8.1-1.3.2.3-.6.9-.7 1.3-.5zm-22.8-21.8l-.1.1-.1-.1.1-.1.1.1zm.5.8c.1 0 .1 0 .2.1-.1.1-.2 0-.2-.1-.1 0-.1 0 0 0zm2.4-7.9c.1-.1.1-.1.2-.1v.1h-.2zm.5-.3c.1 0 .1-.1.2-.1-.1 0-.1 0-.2.1zm.6 2.1c.2-.1.4-.1.7-.1l-.1.2c-.2-.1-.4-.1-.6-.1zm.2-2.8h-.5c-.1 0-.2 0-.3.1.3-.3.7-.4 1.1-.5-.2.1-.2.2-.3.4zM165 18.5c-.1 0-.3-.1-.4-.1.1-.1.1-.3.2-.4l.4.1c0 .2-.1.4-.2.4zm57.3 10.9l-.1.1-.1-.2c.1 0 .1 0 .2.1zm-7 2.7v-.8c.5-.1 1.1-.3 1.7-.3h.2c-.4.6-1.2 1.1-1.9 1.1zm-13.9-9.7c-.1.2-.1.3-.1.4 0 .1-.1.1-.1.2-.2 0-.3 0-.5-.2-.2-.1-.3-.2-.5-.4v-.2s-.1 0-.2-.1c0-.2 0-.4.1-.6h.2c.5.2 1.1.3 1.7.5l-.6.4zm-4-2.1h.5c.3.2.6.4.9.4-.4-.2-.9-.3-1.4-.4zm-2.3 1.7c-.2.1-.3.1-.5 0 .1-.1.1-.2.2-.2l.3.2zm-3.1 1.3c-.1 0-.4 0-.6-.1.1-.2.1-.4.2-.5h-.3v-.1c-.2-.2-.4-.4-.5-.7l.2-.2c.4.1.9.3 1.2.5.1.1.2.2.4.2-.2.4-.4.7-.6.9zm-2.7-1.6c0-.1.1-.1.3-.1h.1c-.1.2-.2.2-.4.1zM63.1 122.4l-.3-.3c.1-.2.1-.4.3-.6v-.2c0-.1.1-.2.1-.3h.7c0 .3 0 .5.1.8-.2.3-.5.4-.9.6zm-2-2.1c-.1-.2-.1-.4.3-.5h.1c-.2.4-.2.5-.4.5zm8.2-4.1c-.1 0-.1 0-.1-.1 0 .1 0 .1.1.1zm.5-3.5h-.2c.2-.2.4-.4.5-.3l-.3.3zm-5.5 6.9c.1 0 .2.1.4.1-.1.2-.2.3-.4.5 0 .1-.1.1-.2.2-.1 0-.3-.1-.4-.1-.2.3-.4.6-.5.9h-.1c.2-.7.6-1.2 1.2-1.6zm-5.3.3s.1 0 0 0c.1 0 0 0 0 0zm2.5 2.5c.1-.1.1-.2.2-.3l.3.4-.1.2-.4-.3zm.5.9c.2-.1.3-.1.4-.1 0 .1 0 .1.1.2-.1.1-.2.1-.3.2-.1-.2-.1-.2-.2-.3zm-.5-2.7l.4-.1c.1.1.2.3.3.4-.2.1-.5 0-.7-.3zm4.4-1.2c.1-.2.2-.3.4-.5.1 0 .2.1.4.2-.3.1-.5.2-.8.3zm2.3-1.5c-.2.2-.5.1-.8 0 .1-.2.3-.5.5-.8.2.3.3.6.3.8zm.6-.2h.2c0 .1-.1.1-.2 0 0 .1 0 0 0 0zm6.7 2.8l-.1-.2.3-.2c0 .1 0 .1.1.2l-.3.2zM24.9 31.4v.2c-.1-.2-.2-.3-.2-.4h.2c0 .1-.1.1 0 .2-.1 0 0 0 0 0zm34.2 89.2c0 .1-.1.1-.1.2 0-.1-.1-.1-.1-.2h.2zm.8 2.9c0-.1.1-.1.1-.2 0 .1 0 .1-.1.2zm3.9-.7c-.1 0-.1-.1-.2-.1.1-.2.3-.4.6-.4.2-.1.5.2.6.4v.4c-.5-.1-.7-.1-1-.3zm2.2-.8h.2v.4c-.1.1-.3.1-.4.2.1-.1.2-.2.2-.3v-.3zm.1-.5v-.3-.3l.4.2c-.1.3-.3.3-.4.4zm3.5-1.3c.1 0 .2.1.4.1-.1.2-.2.3-.3.4 0-.1 0-.3-.1-.5zm1.7 2.4c.2 0 .3-.1.5 0v.2c-.1 0-.3-.1-.5-.2zm-.1-.3c-.2 0-.3-.1-.5-.3.1-.1.1-.3.2-.4.1-.2.2-.3.3-.3.2.1.3.2.5.3.1.1.2.1.2.2-.2.3-.4.5-.7.5zm2.2-.6c-.1 0-.1-.1-.2-.1l.2.1zm3.3-1zm4.9.2s.1 0 0 0c.1 0 .1 0 0 0zm5.9.2v-.3c.2 0 .3-.1.5 0 0 .3.1.5.2.8 0 .1-.1.1-.1.2-.1-.1-.3-.5-.6-.7zm1.3-.4s.1.1 0 0c.1.1.1.1 0 0zm0-.4c.1-.1.2-.1.3 0-.1.1-.2.1-.3 0zm.7.9v-.3h.1c.1.1 0 .2-.1.3zm-1.2-1.4c.2-.3.4-.6.3-1 0-.1 0-.1-.1-.2.7 0 .6.6.7 1.1-.2.1-.5.1-.9.1zm2.7-1.2c0 .1 0 .1 0 0l-.1.1s.1 0 .1-.1zm.2.9c-.1 0-.2 0-.3-.1l.9-.3c0 .1.1.2.1.3-.2.1-.5 0-.7.1zm2.1 0c.1 0 .1 0 0 0 .3.2.4.6.7.8-.2 0-.4.1-.6 0-.2 0-.3-.1-.3-.3h.1l.1-.5zm.2-1.6c0 .4-.1.8-.2 1.2-.5 0-1-.3-1.5-.1-.1-.2 0-.5-.1-.7.1-.1.2-.1.3-.2-.1-.1-.2-.1-.4-.1 0-.1 0-.2-.1-.2.3-.3.7-.2 1.1 0 .5.3.5.3.8-.4.3-.1.5 0 .8-.1 0 .1 0 .2.1.3l-.8.3zm10.2-2.5v-.4-.4l1.1.3v.1c-.3.1-.6.1-.8.3-.1 0-.2.1-.3.1zm2.1-1c.1 0 .3 0 .4.1-.2.2-.3.1-.4-.1 0 .1 0 0 0 0zm1.7 2.1c.1-.5.2-.7.3-.7.1.1.3.2.4.4-.3.2-.5.6-.7.3zm4.9-.3c-.1-.1-.2-.1-.2-.2.1-.1.1-.2.2-.3.1 0 .2.1.3.2-.1.2-.2.2-.3.3zm.9-.6s0 .1 0 0c0 .1.1.1.1.2h-.1v-.2zm6.8-.4c-.2 0-.4-.1-.5-.4.4-.2.5-.1.8 0v.2c0 .1-.1.2-.3.2zm9.5-1.3s0 .1 0 0c0 .1 0 .1 0 0 0 .1 0 0 0 0zm2.8-2.4c0 .3.1.5.1.8-.1 0-.1 0-.2.1-.1 0-.2-.1-.3-.3.2-.4.2-.5.4-.6zm3.6 1.7s.1 0 .1-.1v.2l-.1-.1c0 .1 0 .1 0 0zm-4.9 1.9c.1.1.1.2.2.3-.1.2-.4.5-.6.8.2-.3.3-.7.4-1.1zm3.6.4c-.3.4-.7.6-1 .9 0 0-.1 0-.1.1 0 0-.1 0-.1.1h-.4c-.1-.1-.1-.3-.2-.6l1.4-.2v-.4c.1 0 .3 0 .4-.1.1 0 .2-.1.2-.1 0 .2.1.4 0 .7l.5-.1c.1.2 0 .5-.1.7-.2.1-.4.2-.6.1h-.4c.3-.4.4-.7.4-1.1zm10.4 1.1c0-.2 0-.4.1-.8l.4-.1c.1.1.1.2.1.3-.1.3-.3.6-.5.9l-.3-.3h.2zm.7 1.9c.2 0 .3-.1.5-.1.1.3.1.6.3.7h-1.4l-.1-.1c0-.1-.1-.1-.1-.2.2.1.5-.1.8-.3zm1.4-.9c-.3-.4-.3-.6-.4-.8.2-.1.4-.1.6-.1.1.2.2.4.1.6-.1 0-.2.1-.3.3zm9.8-.8c-.2 0-.3 0-.5-.1h.1c.1 0 .3.1.4.1zm-.1.9l-.1.1c.1 0 .1-.1.1-.1zm56.7-22.6c.3-.1.6-.1.8-.1-.2.1-.3.3-.6.4-.1-.1-.2-.2-.2-.3zm4.5-2.2c.2 0 .3 0 .4.1l-.4-.1zm1.1-5l-.2-.2v-.1c.6-.2 1.3-.1 1.8.4l-1.6-.1zm-3.6-14.4h-.4l-.1-.1v-.2c.2 0 .5.1.7.1 0 .2-.1.2-.2.2zm10.9-14.7s0-.1 0 0c0-.1 0 0 0 0zm-1 6.2c0 .1-.1.2-.1.2-.1-.2-.1-.4 0-.6 0 0 .1.2.1.4zm5.8-6.8c.1.1.1.1 0 0 .1.2.1.3-.1.4-.1.1-.3-.1-.4-.2 0-.1 0-.1-.1-.2.2-.1.4-.1.6 0zm-2.1 6.7c0 .1 0 .3.1.4h-.2c-.1-.3 0-.4.1-.4zm1.5-7.6c0-.1-.1-.2-.1-.3.1.1.1.2.1.3zm-2.5-1.2c.1 0 .1 0 .2-.1v.3c0-.1-.1-.1-.2-.2zm-4.4-4.6c.3.2.4.7.3 1-.5-.2-.5-.5-.3-1zm-2.2-1.9c-.3-.1-.6-.3-.9-.5.4-.2.8-.3 1.4-.6-.2.8-.2 1.1-.5 1.1zM212.8 27c0-.1 0-.1 0 0 .1-.1 0 0 0 0zm-3.3-3.9c-.2 0-.4.1-.6-.1h-.1v-.2c.3 0 .6.1.9 0 0 .1-.1.1-.2.3zm-9.5-3.3l1 .1v.1l-1-.2c0 .1-.1.1-.1.2-.2 0-.4 0-.7-.1l.8-.1zm-12.4.3l.2-.4c.4-.4 1-.5 1.4-.2.2.1.5.2.7.3-.6.2-1.3 1.2-2.3.3zM113 10.4c0 .1-.1.3-.1.4-.1-.1-.1-.3-.2-.4l.1-.1c.2 0 .2.1.2.1zM19 111.3h.2c-.1 0-.1.1-.2 0 .1.1.1 0 0 0zm0 1.2c.1 0 .1-.1.2-.1 0 .1.1.2.1.3l-.3.2v-.4zm6-1c0-.6.1-1.3.6-1.7 0 .3 0 .5.1.8l1-.2c.1 0 .1.1.2.1 0 0 0-.1.1-.1l.9-.2c0 .2.1.3 0 .5.2 0 .3-.1.5 0 0 .1-.1.2-.3.3-.3.1-.6.1-1 .2-.3.1-.6 0-1 .1l.2.4c-.3.1-.6 0-.8 0-.3-.2-.4-.2-.5-.2zm16.2-1.3v.3c-.2 0-.4-.1-.7-.2.3-.6.6-.5.7-.1zm29.8 13c0 .1 0 .1 0 0 0 .1 0 .1 0 0zm2.1-.9c.1-.2.3-.3.6-.1-.2.1-.4.2-.7.2.1 0 .1 0 .1-.1zm-.3.9s.1 0 0 0c.1 0 .1 0 0 0zm3.9.8c.1-.1.1-.2.2-.2 0 0 .1.1.2.3-.1.1-.2.1-.2.1 0-.1-.1-.1-.2-.2zm6.6.1c0-.1 0-.1 0 0l.7-.5v-.3h.2c.5.1.8-.2.9-.9.2.1.5.2.7.2l-.1.4c.2.1.5.3.6.2.2-.3.6-.4.8-.6h.1c-.3.5-.9.2-1 1.1-1.1.1-2 .2-2.9.4zm3.7-.8l.2.1c-.3.1-.7.1-1 .2l.8-.3zm4.5-3.5h.2c-.1.1-.1.1-.2 0 0 .1 0 0 0 0zm8.1-.1c-.1 0-.1 0-.2.1v-.1h.2zm-.1-3.8c0-.1-.1-.3-.1-.3 0-.1.1-.2.2-.3.1.1.2.1.2.2s-.1.2-.3.4zm4.1.6c-.3 0-.6-.2-1-.4.2 0 .3-.1.4-.1h.1c.2.1.5.2.7.5h-.2zm1.5.1c.1-.1.2 0 .3 0h-.3zm1.4 2.9h-.4c-.1 0-.2-.1-.3-.1.5-.2.6-.1.7.1zm8.3.3c-.4-.1-.7-.2-1.1-.3 0-.1-.1-.3 0-.5h.1c.4.2.8.3 1 .8zm-.2.6c.1.2.2.3.1.5-.1-.1-.2-.2-.4-.2.2-.1.2-.2.3-.3zm2.3-3.4c-.2.2-.4.5-.6.4-.1 0-.1 0-.2-.1.2-.7.3-.8.8-.3zm.3-1.3c-.1 0 0 0 0 0zm1.3-.1c.1 0 .2.1.3.2-.1.1-.2.2-.3.2v-.4zm2.4 4.2s.1 0 0 0c.1 0 .1.1 0 0zm.6-4.2c.5-.1 1.1-.5 1.4-1 .5-.5.7.1 1 .3-.6.6-1 1.3-1.6 1.9.3-.9-.3-.9-.8-1.2zm4.1-.8c.1.2-.1.5-.1.7l-.1-.1c0-.2.1-.4.2-.6zm4 1.3c.1 0 .4-.2.4-.4v-.5h.1c0 .6.2 1.1-.3 1.2h-.1c-.2 0-.3-.2-.4-.3h.3zm.5 1c.1 0 .3-.3.5-.6v-.1h.7c0 .6.4.7.8.7-.1.9.2 1.2.8 1 .2-.1.5-.3.7-.2h.1c.6.2 1.2-.2 1.5-.7.2.3.1.6.3.9-.4.1-.7.4-.6.9-.4 0-.9-.1-1.3-.1-.9.1-1.9.1-2.9 0-.1-.1-.2-.2-.2-.3v.3h-.2c-.2 0-.4-.1-.6-.3.3-.5.4-.9.6-1.3 0-.1-.1-.1-.2-.2zm4.5 2.6c-.1.1-.2.2-.4.2.1-.2.3-.2.4-.2zm-1.1 1.5c.1-.2.2-.4.4-.6.1.1.2.2.2.4s-.1.3-.4.5c-.1-.2-.2-.2-.2-.3zm.9.5c-.1 0-.1 0 0 0-.1 0-.1 0 0 0zm2.9-3.2c.1 0 .2.1.4.2h-.8c.1 0 .2-.1.4-.2zm.9-1.7c.1.1.3.2.5.4-.3 0-.5-.2-.8-.3.2-.1.3-.2.3-.1zm1.1.3c.2-.1.4-.1.6.1h-.8c0-.1.1-.1.2-.1zm1.9 0l.1-.1h.1c0 .1-.1.1-.1.2-.1 0-.1 0-.1-.1zm.1-1.3zm6.4 4c0-.1.1-.1.2-.1.2-.1.4 0 .5.3h-.9c.1-.2.2-.1.2-.2zm2-2.1l-.6-.3c.1 0 .1 0 .2-.1.1 0 .3-.1.4-.2v.6zm5.5-1.3c-.2.5-.4.5-.6.3.1 0 .3 0 .3-.1.1-.1.2-.2.3-.2zm3.6 2.1c-.3-.4-.4-.7-.5-.9.6.1 1.2 0 1.8.1-.2.3-.4.4-.7.5-.1 0-.3.1-.6.3zm1.2 1c.1-.1.2-.3.3-.4h.1v.3l-.4.1zm23.9-3.6c-.7.4-.9.7-1.1.7-.2 0-.4-.1-.7-.4.6-.5 1.1-.2 1.8-.3zm35.8-22.1l-.5-.3c0-.9 0-.9-.8-1.1-.4 0-.8 0-1.2.1l-.3-.1c.2-.5.3-.9.3-1.3.7 0 1.4 0 2.2-.1-.1.6 0 1.1.4 1.3.2 0 .3-.1.4-.2 0 .8-.2 1.1-.5 1.7zm-1.1-13.9c.3-.2.7-.3 1-.4-.2.2-.4.5-1 .4zm1.7-4.5c-.2 0-.3-.1-.4-.2.2-.4.4-.8.7-.4.1.1.1.2.1.4-.1.1-.2.2-.4.2zm-.7-.7c-.1.2-.2.3-.4.5-.2 0-.5-.1-.7-.1-.1 0-.2.1-.3.1l-.3-.5-.3.7c-.1.1-.3.1-.4.2-.6-.4-.9-.8-1.1-1.4l.2-.2.6-.4c.2 0 .4 0 .6.1-.1-.4-.2-.8-.4-1.1h.4c.2-.4.4-.8.6-1 .1-.4.3-.7.7-.7.4-.1.6.4.7.9 0 .1-.1.2-.1.2-.2.2-.7.1-.6.5.1.5.4.3.6.2.1-.1.2-.2.3-.2.5.5.8 1 1.3 1.1.3.1.7.3 1 .5 0 0 .1.1.1.2-.2.4-.5.2-.8.1-.9-.6-1.4-.4-1.7.3zm1.7-2c.1-.1.1-.2.2-.2 0 0 .1.1.2.3-.1.1-.2.1-.3.2 0-.1-.1-.3-.1-.3zm.7-1.2h-.4c-.2 0-.3 0-.5-.1-.1 0-.2-.3-.2-.4.1-.1.2-.2.4-.2.4 0 .7.2 1.1.2 0 .1.1.1.1.2-.2.2-.4.2-.5.3zm5.9-2.1c-.1-.2-.2-.4-.2-.6 0-.1.1-.2.2-.3.1.2.2.3.2.5 0 .1-.1.3-.2.4zm1.6 1.9l-.2-.2c.1-.1.1-.2.2-.3.1.1.2.1.2.2-.1.1-.2.2-.2.3zm1.7.4l-.6.2c.2-1 .7-1.9 1.5-2.6 0 .6.1 1.1.1 1.6-.4.4-.7.5-1 .8zm-1.9-12.8c0 .1.1.2.1.2 0 .3-.3.6-.5.7-.1.1-.2.1-.3.1 0 0 .1-.1.1-.2.3-.5.2-1.1-.1-1.4.6-.3.7.3.7.6zm-.2-2c-.1.1-.1.2-.2.3v-.3c-.1-.1-.3-.3-.4-.6l.6.1c.1.3.1.4 0 .5zm-3 .9l-.1.8c-.3-.1-.7-.3-1.1-.3l1.2-.5zm-2 .2c.4.1.6.5.3.8-.2.4-.5.3-.7.3h-.2c0-.1-.1-.2-.1-.2.2-.4.5-.7.7-.9zm-.3-.4c-.1-.5-.2-.8-.3-1.1.7.3.7.3.3 1.1zm.9-8.3c-.1.3-.3.5-.4.8-.3-.8-.9-.7-1.6-.5.2-.7.4-1.2.6-1.8.4.5.9 1 1.4 1.5zm-.1-2.6c-.3 0-.5-.2-.7-.4.6-.6.9-.2 1.3.1-.1.2-.4.3-.6.3zm1.9-8.6c.1.1.2.1.2.2s-.1.2-.1.3c-.1-.1-.2-.2-.2-.3 0 0 .1-.1.1-.2zm-.7 7.2c-.5.2-1 .3-1.5.3-.1 0-.3 0-.4-.1-.2-.1-.4-.3-.4-.6.1-.2.3-.3.5-.5.3-.2.7-.4 1.1-.7 0 .7.7.7.7 1.6zm0-5.4c-.1.3-.4.5-.7.5.1-.5.1-.9.2-1.6.3.1.5.1.6.3.1.3.1.6-.1.8zm0-2.6l-.4 1.1c-.1-.1-.3-.1-.3-.2-.1-.5.1-.6.7-.9zm-.7 4.6c-.2.4-.5.7-.8.6-.2 0-.3-.1-.5-.3.5-.3.8-.9 1.3-.3zm1-10.7c.1.2.3.4.5.9-.6 0-1.1.1-1.6.1l-.4-.7c.3-.1.9-.2 1.5-.3zm-1.5 4.4c-.3.7-.6.6-1 .6 0-.1-.1-.2-.1-.3.4-.2.8-.2 1.1-.3zm2.7-11.4l1.1.9v.2h-1.3c.1-.3.2-.6.2-1.1zm-4.3.4c-.3.2-.6.2-1 .3-.3 0-.6-.3-.7-.5l1.7.2zm-3.3.5c.1.1.1.3 0 .4h-.4c-.1-.1-.1-.2-.2-.3.1-.3.3-.4.6-.1zm-1.5-1.5c.1-.2.3-.2.5 0 .1 0 .1.1.2.2.2.3.1.7-.2.9-.1.1-.2.2-.4.2s-.4-.1-.6-.3c.2-.4.3-.7.5-1zm-1.4 1.6v.3c-.2 0-.3.1-.4.3h-.1c0-.2.2-.4.5-.6zm-22.2-6.6c0-.1 0-.1 0 0 0-.1 0-.1 0 0zm-5-.8h.2v.1l-.2-.1zm-.3 0l.1.1h-.3c0 .1-.1.2-.1.3-.4 0-.9-.1-1.3.2l.9.3c-.1.1-.3.1-.4.1-.3 0-.7-.2-1-.3l2.1-.5v-.2zm-6.9-3.1c-.1.6 0 1.2-.1 1.8-.1 0-.1 0-.2.1l-.7-.1c-.1-.1-.2-.1-.4-.2-.3-.1-.1-.6 0-1.1.6.2.8.1 1.4-.5zm-7.2-2.5l.7.6c-.4.1-.9 0-1.3.1.4-.2.7-.4.6-.7zm.3 1.2c-.3.4-.7.6-1 1-.1-.1-.2-.2-.4-.2h-.2c-.1-.1-.3-.1-.4 0-.7.4-1-.1-1.1-.7.1-.1.3-.1.4-.2.5.2 1 .3 1.6.5-.1-.3-.2-.5-.3-.6.4 0 .9.1 1.4.2zm-3.2-.2c.1 0 .1 0 0 0zm-3.2.4c.2.1.3.2.4.3 0 .1-.1.2-.2.3-.1-.1-.2-.1-.3-.2-.1-.1-.2-.1-.2-.2 0 0 .1-.1.3-.2zm-27-1.6c.2.1.3.2.5.4-.2.2-.3.4-.3.4-.2-.1-.3-.2-.4-.4 0-.2.1-.4.2-.4zm-13.2-.6l.2-.2.2.2c-.1.1-.2.1-.3.2 0-.1 0-.2-.1-.2zm-5.4-.8c0 .1-.1.3-.1.4l-.1-.1c0-.1 0-.1-.1-.2l.2-.2c-.1 0 .1.1.1.1zm-2.8.5c.1.1.2.2.3.2-.1.1-.3.1-.4.2 0 0-.1-.1-.2-.1l.3-.3zm-7.9-2c.1.1.2.1.3.1-.2.1-.4.2-.6.2-.1-.2-.2-.3-.4-.4.3 0 .5.1.7.1zm-2.6 2c.1-.1.1-.2.2-.3 0 .1.1.1.1.2-.1.1-.3.2-.3.1-.1.1-.1.1 0 0zm-1.3 1.1c0 .1-.1.2-.2.2 0 0 0-.1-.1-.1l.3-.1zm-9.5-.8s-.1 0-.1.1c-.3.1-.5 0-1.1.2.3.2.6.4.7.6-.2-.1-.5-.3-.8-.4v-.2c.4-.2.8-.3 1.3-.3zm-3.5-1c.1.2.2.3.3.5-.1.1-.3.2-.4.2s-.2-.2-.3-.4c.1-.2.2-.2.4-.3zm-19.5 1.7c0 .1.1.1.1.2s-.1.1-.1.2c0-.1-.1-.1-.1-.2-.1-.1 0-.1.1-.2zm-15 .4s.1.1.1.2l-.4.2c-.1-.1-.1-.2-.2-.3.3 0 .4-.1.5-.1zm-11.3-.1c.2.2.3.5.4.8 0 .1-.3.3-.5.5-.2-.3-.2-.6-.4-.9 0-.2.3-.2.5-.4zm-5.8 2.1c-.3.6-.5 1-1.1.6-.1-.1-.1-.1-.1-.2.3-.6.8-.4 1.2-.4zm-13.9 8.1c.1 0 .2.1.3.2-.1 0-.1.1-.2.1-.2 0-.3 0-.5-.1l.4-.2zm-3.5.5c.1 0 .2 0 .2.1 0 0 0 .1-.1.2l-.2-.1c.1-.1.1-.2.1-.2zm-3.6 3.4c.5-.1 1.1-.3 1.7-.4 1-.2 2 .2 3-.2.3-.2.9.3 1.4.4.5.3 1 .6 1.6 1-1.6.9-3.2.7-4.7.9-.3.1-.7-.1-1-.3-.4-.2-.6-.6-1-.8-.2-.1-.6-.2-1-.6zm-11.2 87.6s-.1 0-.2-.1c.1 0 .1-.1.2-.1 0 0 .1-.1.2-.1 0 .2-.1.3-.2.3zm26.1-1.5c.2-.2.6-.3.9-.3-.3.3-.6.3-.9.3zm1-.4h.2v.2l-.2-.2zm4 3.1l-.8-.2v-.3l.9.1v.3l-.1.1zm-.9-1.6c.6-.5.9 0 1.5.4-.8.3-.8.3-1.5-.4zm19.5 13.1l-.4-.1v-.2h.4v.3zm1.1-.1c.5-.6.5-.6 1.3-.3-.3.2-.7.3-1.3.3zm1.9-1.4h.4c0 .1-.1.2-.1.2-.3 0-.3-.1-.3-.2zm1.7 1.2h-.2c0-.1-.1-.1-.1-.2h.3c.1.1.1.1 0 .2zm1.6-1.9c-.2-.2-.3-.2-.5-.4l.6-.3c.2.1.4.1.6.3-.1.5-.4.4-.7.4zm6 .7v-.2c.1-.1.2-.1.3-.2 0 .1 0 .2.1.2-.2.1-.3.2-.4.2zm.7-.2l1-.3c0 .1 0 .1-.1.1-.2.2-.5.2-.5.7.1-.1-.1-.2-.4-.5zm1.6 0l.3-.3h.5c.2-.1.3-.4.6-.5l.5 1.1h.4c.2 0 .4 0 .6.1-.4.1-.8 0-1.2 0-.6-.1-1.1.2-1.7-.4zm1.4 1.2zm3.5 1.5c-.3 0-.5-.6-1-.3-.8-.4-1.3-.5-1.7-.3 0 .2.1.3 0 .5h-.1c-.1 0-.1-.1-.2-.1 0-.2 0-.4.1-.6h.9c-.1-.1-.2-.3-.3-.4v-.1c.3 0 .7.1 1.1 0 .2.1.5.3.7.4.6.2.6.6.5.9zm.4-1.7c-.1 0-.3-.1-.6-.5.4-.2.8-.2 1.1-.3-.3.6-.4.8-.5.8zm2.2-1.1c0-.1 0-.1-.1-.2.2 0 .3 0 .5.1-.1 0-.3.1-.4.1zm5.6-.3l-.5-.3v-.1h-.2l-.6-.4c.1-.5 0-.9.1-1.4.3 0 .5.2.8.2.4.2.9.1 1.2-.2.2.1.3.2.5.4-1 .3-1.1 1.1-1.3 1.8zm.8-2.4c-.2 0-.3-.1-.5-.3.1 0 .1-.1.2-.1.7 0 1.3-.1 2-.1v.2c-.7.2-1.2.3-1.7.3zm2.6.1c-.1-.2-.1-.3-.1-.4h.7c.1.1.1.2.2.4h-.8zm1.5-1.1c.2-.1.4-.2.5-.2 0 .2-.2.5-.3.8l-.2-.6zm2.4.8c-.1-.1-.3-.2-.4-.2.1 0 .2-.1.3-.1.1 0 .1-.1.2-.1 0 .1 0 .2-.1.4zm2.1-1.4c-.1 0-.2-.1-.4-.1-.1-.1-.2-.2-.3-.4.4-.2.7-.2 1.1-.4 0 .2.1.4 0 .5 0 .3-.2.4-.4.4zm4.3-.4c-.1-.1-.2-.1-.3-.1v-.1c0-.1-.1-.2-.1-.2.5-.2 1-.4 1-.9.1-.2.1-.3.2-.5.2 0 .3-.1.5 0v-.3h-.4v-.1c0-.1-.4-.3-.6-.4-.6-.1-1.3 0-1.8.2 0 0-.1 0-.1.1-.1.1-.2.2-.4.3-.2-.1-.5-.2-.8-.2-.2.1-.4.1-.6-.1 0-.1-.2-.3-.3-.4.5-.2 1.1-.3 1.7-.2h1.4c.1 0 .3 0 .4-.1.3 0 .6 0 .8-.1.6 0 1.1-.1 1.7-.1 0 .2-.1.3-.2.4-.2.1-.4.3-.7.2.4.3.8.4 1 .6-.2.1-.3.1-.5.1.2.1.5.2.8.2 0 .1.1.1.1.2-.4-.1-.7-.2-1.1-.3 0 .3-.2.6-.2.8l-.6.1v.1l-.1-.1V119.7l-.1.7c-.1.4-.4.4-.7-.1zm8.4.8c-.1-.1-.2-.1-.3-.1l.1-.1c-.2-.1-.4-.2-.6-.4.1-.1.3-.1.4-.2.3-.1.6-.2.9-.5.2-.4.4-.8.3-1.2v-.1c.3 0 .5.2.6.6.2.6-.3.7-.4 1.1 0 0 0 .1.1.1l-.1.3.5.3.1.1c-.7.5-1.2.8-1.6.1zm5.3-.6v.6l-.2-.5.2-.1zm.6.3c0-.1-.1-.2-.1-.3l.8-1.5-.2-.1c-.2.4-.6.6-.8 1-.2-.1-.4.1-.6.1 0-.6-.1-1.2-.5-1.8.5-.2.9-.7.9-1.2.8-.8 1.5-.6 2.2.4 0-.5 0-.8-.1-1.1.5 0 .9 0 1.1.7.2.4.3.7.6 1.1 0 .2 0 .4-.1.6l-.9-.3c.1-.6.1-1.1.2-1.6l-.5.1v1.1c-.6-.1-.6-.1-1 .6.2.1.4.2.6.4h-.4c.1.3.1.5.2.8-.4.1-.4.2-.5.6l.8.3c-.6-.1-1.1.1-1.7.1zm2.4 1.2l.1-.1c-.4-.2-.7-.6-1.1-.8v-.1l1.2.6v.3c-.1.1-.2.1-.2.1zm1.6 4.2c.1-.1.3-.1.4-.1-.2.1-.3.1-.4.1zm3.4-8.3c-.1.6-.2 1-.6 1h-.5c-.2 0-.4.3-.6.1-.2-.1-.2-.4-.2-.6-.2-.1-.4-.1-.6-.2.6 0 1.1-.1 1.6-.1-.1-.2-.2-.4-.1-.6.2-.1.3-.3.4-.3.4.2.6 0 .8-.3l.3-.3c-.3.3-.5.7-.5 1.3zm2.7 1.2c-.1.2-.2.4-.4.4-.1 0-.2 0-.3.1-.2-.3-.3-.7-.5-1.1-.4.8-.3 1.3-.2 1.5.1.1.1.1.2.1 0 .1-.1.2-.1.2-.6-.2-.9-.6-1.2-1.5.5.2.8.2 1.1.3-.1-.3 0-.6 0-.8l.1-.1c.3.1.7.2 1.1.1.2-.1.5-.5.4-.6-.1-.1-.3-.2-.4-.3l.2-.1h-.4c-.2-.2-.4-.3-.6-.5v-.1c.2.1.4.2.5.5.4-.6.7-.7 1.2-.3.3.2.6.3 1 .3l-.6.3c.1.2.3.4.3.6v.3c-.2.3-.4.6-.7.3-.4-.1-.5 0-.7.4zm1.7 6.4c.1 0 .2.1.2.2 0 .2-.1.4-.2.5-.2-.3-.3-.4-.2-.5l.2-.2zm1.3-4.7c-.1 0-.2-.1-.2-.2s.1-.3.1-.3c.2.1.3.2.4.3-.1.1-.2.2-.3.2zm8-1c-.3-.1-.5-.1-.7.3-.1.2-.3.4-.4.4-.5-.1-.7.5-.9.8-.3-.1-.6-.3-.8-.5-.2-.2-.3-.4-.4-.7.1 0 .2-.1.3-.1.1 0 .2-.1.3-.1s.3 0 .4.1v-.2h.2c.8.1 1.5.2 2.1-.9 0-.1.3 0 .6.1l-.4.8.2.1c-.3 0-.4 0-.5-.1zm2.1-.1c-.1 0-.2-.1-.3-.1 0-.3-.1-.4-.1-.5.1-.3.3-.7.5-1-.3 0-.6-.1-.9-.1l.1-.5 1.3.5.8-.7h.5c0 .3-.1.5-.1.8h.3c0 .2 0 .4-.1.5-.2.1-.4.4-.6.6.3.2.5.5.6.7-.5 0-1.3 0-2-.2zm9.8-1.5c-.1-.2-.2-.4-.2-.6.2-.3.5-.3.8-.3.2.2.2.5.4.8-.3.1-.7.2-1 .1zm3.4-.7c-.5-.1-.9-.4-1.3-.5.1-.1.3-.2.5-.2s.5.1.7 0c-.2.1-.3.1-.4.2l1.1.4c-.3 0-.5.1-.6.1zm2.9 2.8l-.1-.1-.3-.3c.1-.1.2-.1.3-.1.3 0 .6.3.9.3.3 0 .5.2.8.2v.1l-1.6-.1zm4.4.1c-.1 0-.1-.2-.1-.2l.1-.1c.1 0 .1.1.2.2l-.2.1zm.5-2.2c0 .2 0 .4-.2.8l-.7-.4c.2-.3.4-.6.4-1 .1-.1.3-.1.4-.2-.1 0-.3-.1-.4-.1-.1-.2-.1-.4-.1-.5.3 0 .6.3.7.2l.1-.1c.1.3.1.6.2.8-.2.2-.3.3-.4.5zm2.7-.6c0 .2.1.4 0 .5l-1.8-.3c.2-.1.4-.2.6-.1.4-.1.5-.1.6-.7.1-.2.5-.3.6-.2.4.2.8.2 1.2.1-.3.3-.9.3-1.2.7zm2.6 3.6c-.2-.2-.4-.3-.6-.5.1-.1.3-.2.4-.4.1.1.2.1.4.1.4 0 .6-.1.8-.6.1.1.2.1.3.3-.4.4-.9.8-1.3 1.1zm3.2-1v-.4c.3 0 .7.1 1.1 0-.1.1-.2.3-.4.5l-.7-.1zm11-.5c-.1 0-.2 0-.3-.1v-.2h.3c.2.1.1.2 0 .3zm.8-1.1c-.1 0-.1-.1-.2-.1 0-.1.1-.2.1-.2.1 0 .1 0 .3.1-.1.1-.1.2-.2.2zm.5 1.8h-.2v-.2h.2c.1.1.1.2 0 .2zm1.3-.4c-.2 0-.4-.2-.6-.4.3-.2.5-.2.7-.3 0 .2.2.4 0 .5.2.1.1.2-.1.2zm.8-3.7c.4-.3.4-.3.8.2-.2-.1-.5-.1-.8-.2zm.7 3.8c.2-.4.5-.3.7.1-.3 0-.5 0-.7-.1zm1.3-3.6c-.1-.1-.1-.1-.2-.1 0-.1.1-.2.1-.2l.1.1c.1.1 0 .1 0 .2zm10.6-9.1c-.1-.4-.1-.7-.2-1.1.6 0 .4.6.7.9l-.5.2zm1.8-.3c-.2-.1-.3-.3-.4-.6-.1-.1 0-.3.1-.5.1 0 .3 0 .4.1.1.2.1.5.1.7-.1.2-.2.3-.2.3zm.7-1.1l.5.1v.1h-.4l-.1-.2zm.3 1.8c-.1 0-.1-.1-.3-.4.2.1.3.1.6.4-.1-.1-.2 0-.3 0zm1.8.3c-.2-.1-.4-.1-.6-.3v-.3c.3.2.4.5.6.6zm12.8-8.4c0-.1 0-.1.1-.2l.1.2h-.2zm11.2-7.8c-1.2 0-2.4-.1-3.5-.1v-.1l-.7.1c-.2 0-.5-.1-.7 0 .1-.1.1-.3.2-.4.5-.1 1 0 1.6-.5.4-.2.7-.4 1-.8.5.3.8.4 1.2.6.1-.3.5-.6.8-.7 0 .1 0 .2-.1.4.4.1.8.3 1.3.4 0-.3.1-.7.2-1 .1 0 .3 0 .4.1.1.2 0 .5.1.9.3-.1.5-.2.8-.3.2.1.3.1.1.5 0 .2-.3.2-.5.2-.2.1-.3.1-.5 0 .1.3.2.4.4.4h.4c.2 0 .3 0 .5.1.2 0 .3.1.4.3l-2.2.1c-.6 0-.8-.1-1.2-.2zm12 5.1c-.4.1-.4-.2-.3-.7.1.1.3.1.5.2.5 0 1-.2 1.4-.3.4-.2.5 0 .5.7-.8-.1-1.4-.1-2.1.1zm4-10.5c-.1 0-.1.1-.2.1s-.2-.2-.2-.5c.2 0 .4.1.6.2-.1 0-.2.1-.2.2zm.3-1.4h-.4c.7-.5 1.1-.8 1.6-.2-.4.3-.8.3-1.2.2zm.3 13.1c-.2-.2-.5-.2-.7-.1-.1.1-.3.1-.4.1-.2 0-.4-.1-.5-.5 1-.5 1.9-.3 3-.5-.5.8-1.1.6-1.4 1z"/><path class="st0" d="M159.6 122.8c0 .1.1.2.2.2s.2-.2.2-.2c-.1-.1-.1-.1-.2-.5-.2.2-.2.4-.2.5zM125.9 7.4h.4-.4zM95.1 119.6c.3.5.6.4.8-.1-.1-.1-.2-.1-.4-.1 0-.1-.1-.1-.4.2zM125.9 7.4zM118.1 127.4zM166.2 122.4c-.1 0-.2 0-.3.1.4.4.8 1 1.2 1.4-.4-1-.5-1.4-.9-1.5zM165.4 129.6h.1zM166.8 129.6c-.1-.1-.3-.2-.5-.3-.3 0-.6 0-.8.3-.2.3-.5.6-.1.9.3-.4.7-.6 1.2-1v1.1c.2-.1.4-.6.2-1zM171.6 123.4l1 .1v-.4c-.2-.1-.3-.1-.5-.2-.1.1-.3.1-.5.5zM222.6 104.7c.3-.4.8.2 1.2-.7-.5.2-.8.3-1.3.5.1 0 .1.1.1.2zM163.9 120.4h-.2c0 .2-.1.3-.2.5h.3c0-.1 0-.3.1-.5zM161 127.1v.2h.2s0-.1.1-.2c-.1.1-.1 0-.3 0 .1 0 .1 0 0 0zM162.4 129.5c.1 0 .3.1.4.1v-.2l-.4-.1v.2zM175.5 121.4l.2.1c.1-.2.3-.5.4-.7l-.3-.1c-.1.2-.2.4-.3.7zM163 130.2l-.1.1c0 .1.1.1.2.2l.1-.1-.2-.2zM177.8 126.9c.1.1.1.2.2.3 0-.1.1-.2.2-.3-.1-.1-.2-.1-.3-.1 0-.1 0 0-.1.1zM208.3 109c.2-.1.5 0 .8-.2-.2-.1-.4-.2-.6-.4 0 .1 0 .3-.2.6zM208.9 109.5c-.1 0-.1.1-.2.2.1.1.1.2.2.2s.1-.1.2-.2c0-.1-.1-.1-.2-.2zM221 103.8l.5.9.5-.7-.4-.8c-.3.2-.5.4-.6.6zM217 104.8c0 .1.1.1.1.2.1 0 .2 0 .2-.1.1-.1.1-.2.1-.3l-.1-.2-.3.4zM198.9 109.7l.2-.2-.1-.1-.1-.1v.1h-.1c-.1.1-.3.2-.3.3 0 .1.2.2.3.3 0-.2 0-.2.1-.3zM207.2 111c-.3-.2-.5-.4-.7-.5.1.1.1.2.1.3l-.9-.3c.6.7.6.7 1.5.6v-.1zM202.8 111.6l-.5-.2v.1l-.5-.1v.3l1 .1v-.2z"/></svg>